<?xml version="1.0" encoding="UTF-8"?>
<svg width="28px" height="28px" viewBox="0 0 28 28" version="1.1" xmlns="http://www.w3.org/2000/svg" xmlns:xlink="http://www.w3.org/1999/xlink">
    <!-- Generator: sketchtool 51.2 (57519) - http://www.bohemiancoding.com/sketch -->
    <title>1D6BFEBF-8F16-431C-B110-9CDDEC9C5E7C-669-0000C902CA9330E0@1x</title>
    <desc>Created with sketchtool.</desc>
    <defs></defs>
    <g id="Page-1" stroke="none" stroke-width="1" fill="none" fill-rule="evenodd">
        <g id="Style-guide" transform="translate(-638.000000, -1154.000000)" fill="#3399FF">
            <g id="icon/activityLog" transform="translate(638.000000, 1154.000000)">
                <path d="M0,12.5716392 C0.122446255,11.9770207 0.23180665,11.3795885 0.370142876,10.7887215 C0.96274536,8.25080719 2.20683669,6.06835093 3.98557885,4.18320393 C4.47910268,3.65892672 5.06796635,3.58577176 5.52784083,4.02094998 C6.00453999,4.47113434 6.0503405,4.99166001 5.64000534,5.51781298 C5.35865937,5.87702258 5.04366404,6.20997143 4.75857925,6.56730527 C1.65068768,10.4642136 1.27867539,15.8195317 3.81826679,20.0747118 C6.34009881,24.3017554 11.2192549,26.5339195 16.0498064,25.6710662 C20.9214848,24.8007097 24.7332087,20.9450683 25.5978101,16.0127359 C26.830685,8.97954313 21.5897984,2.44811837 14.4813727,2.16018796 C14.2785419,2.151747 14.0729069,2.16112584 13.8747496,2.12361048 C13.2438243,2.00262343 12.8690079,1.63778652 12.9204166,0.963447868 C12.9690212,0.323810923 13.3793564,-0.0372744488 13.9822406,0.00305456673 C15.0907998,0.0780852934 16.2171184,0.141861411 17.2938977,0.392276461 C23.073174,1.73438858 27.4148752,6.87211759 27.8719455,12.8192406 C27.892509,13.0949785 27.9560689,13.3669649 28,13.640827 L28,14.4042647 C27.9074643,15.0532805 27.8289491,15.7032341 27.7205234,16.3494363 C26.6428095,22.7655013 21.1476833,27.7119019 14.7991721,27.9857641 C7.97957004,28.2811976 2.06943517,23.9519246 0.440245694,17.4627047 C0.274803044,16.80431 0.14581386,16.1365366 0,15.4725146 L0,12.5716392 Z M23.6164241,13.997223 C23.61362,19.3281561 19.3354787,23.6546154 14.0244893,23.6996338 C8.80883963,23.7446522 4.44750968,19.5157329 4.2970223,14.2692094 C4.2745894,13.4729458 4.66623047,12.9505443 5.3139805,12.913029 C5.94677527,12.8755136 6.40010682,13.3378905 6.43656029,14.1632285 C6.6160235,18.2373969 9.5304313,20.7387338 12.2214448,21.3174082 C15.2162371,21.9607967 17.7745226,21.1420239 19.7261851,18.7982516 C21.6638269,16.473237 22.039578,13.7871369 20.8431566,11.0091243 C19.6327146,8.19922357 17.3931633,6.71455307 14.3478969,6.46601378 C14.1974095,6.45382129 14.0413139,6.4707032 13.8936307,6.44256668 C13.26364,6.32533117 12.8757377,5.9698731 12.9206036,5.29741022 C12.9654694,4.62588521 13.3786086,4.2966879 14.0357057,4.31075616 C17.4800908,4.384849 20.1664308,5.87702258 22.0779009,8.73850692 C23.1443985,10.3347856 23.6173588,12.0839394 23.6164241,13.997223 Z M19.3312725,14.0164496 C19.3256643,16.8929401 17.0169449,19.2873581 14.1651622,19.3764571 C13.4510482,19.3989663 12.9790226,19.0397567 12.9163974,18.4282563 C12.8490987,17.767048 13.2276539,17.2990439 13.9950461,17.233392 C14.9792896,17.1499203 15.8242623,16.820723 16.4467753,16.0366519 C17.218841,15.0640661 17.4104553,13.9761206 16.953385,12.8122064 C16.4963146,11.6492302 15.6083456,11.0011523 14.3941648,10.7854389 C14.2455468,10.7582403 14.0913206,10.7629297 13.9398985,10.7469857 C13.2856056,10.679458 12.9210709,10.3230621 12.9163974,9.65528861 C12.9117239,9.02409262 13.363186,8.62361612 14.0642142,8.60392055 C16.871131,8.52607617 19.3368808,11.0593011 19.3312725,14.0164496 Z"></path>
            </g>
        </g>
    </g>
</svg>