<?xml version="1.0" encoding="UTF-8"?>
<svg width="30px" height="30px" viewBox="0 0 30 30" version="1.1" xmlns="http://www.w3.org/2000/svg" xmlns:xlink="http://www.w3.org/1999/xlink">
    <!-- Generator: sketchtool 51.2 (57519) - http://www.bohemiancoding.com/sketch -->
    <title>70A0EEF0-C6D7-497E-90D9-0A465D7BA3AC@1x</title>
    <desc>Created with sketchtool.</desc>
    <defs></defs>
    <g id="Page-1" stroke="none" stroke-width="1" fill="none" fill-rule="evenodd">
        <g id="Style-guide" transform="translate(-891.000000, -1988.000000)" stroke="#A1A5A8">
            <g id="Group-9" transform="translate(881.000000, 1848.000000)">
                <g id="Icon/add-new-timer/pushed" transform="translate(11.000000, 141.000000)">
                    <circle id="Oval-4-Copy" stroke-width="2" cx="14" cy="14" r="14"></circle>
                    <path d="M13.5,8 L13.5,13.5 L8,13.5 C7.72385763,13.5 7.5,13.7238576 7.5,14 C7.5,14.2761424 7.72385763,14.5 8,14.5 L13.5,14.5 L13.5,20 C13.5,20.2761424 13.7238576,20.5 14,20.5 C14.2761424,20.5 14.5,20.2761424 14.5,20 L14.5,14.5 L20,14.5 C20.2761424,14.5 20.5,14.2761424 20.5,14 C20.5,13.7238576 20.2761424,13.5 20,13.5 L14.5,13.5 L14.5,8 C14.5,7.72385763 14.2761424,7.5 14,7.5 C13.7238576,7.5 13.5,7.72385763 13.5,8 Z" id="Combined-Shape-Copy-4" fill="#FF9E27"></path>
                </g>
            </g>
        </g>
    </g>
</svg>