<?xml version="1.0" encoding="UTF-8"?>
<svg width="16px" height="16px" viewBox="0 0 16 16" version="1.1" xmlns="http://www.w3.org/2000/svg" xmlns:xlink="http://www.w3.org/1999/xlink">
    <!-- Generator: sketchtool 51.2 (57519) - http://www.bohemiancoding.com/sketch -->
    <title>D26FC2C4-227C-4041-BDDF-381F6BADFCA7-669-0000C902C807B1C2@1x</title>
    <desc>Created with sketchtool.</desc>
    <defs></defs>
    <g id="Page-1" stroke="none" stroke-width="1" fill="none" fill-rule="evenodd">
        <g id="Style-guide" transform="translate(-349.000000, -1027.000000)">
            <g id="icon/alerts" transform="translate(350.000000, 1028.000000)">
                <g>
                    <path d="M7.0375289,8.79989323 C6.9059493,8.79989323 6.79410831,8.75799421 6.70200258,8.67419491 C6.60989686,8.5903956 6.55507285,8.46888844 6.5375289,8.30966977 L6.0506868,3.42000496 L6.0375289,3.29430664 C6.0375289,3.0345288 6.1318262,2.82712864 6.32042364,2.67209993 C6.50902107,2.51707123 6.74805377,2.43955804 7.0375289,2.43955804 C7.32700403,2.43955804 7.56603673,2.51707123 7.75463416,2.67209993 C7.9432316,2.82712864 8.0375289,3.0345288 8.0375289,3.29430664 L8.02437101,3.43257479 L7.5375289,8.30966977 C7.51998495,8.46888844 7.46516094,8.5903956 7.37305522,8.67419491 C7.28094949,8.75799421 7.16910851,8.79989323 7.0375289,8.79989323 Z M7.0375289,11.439558 C6.75682574,11.439558 6.52437193,11.3494751 6.34016048,11.1693066 C6.15594903,10.9891381 6.06384469,10.7649784 6.06384469,10.4968206 C6.06384469,10.2286628 6.15594903,10.0045031 6.34016048,9.82433457 C6.52437193,9.64416607 6.75682574,9.55408317 7.0375289,9.55408317 C7.31823206,9.55408317 7.55068587,9.64416607 7.73489732,9.82433457 C7.91910877,10.0045031 8.01121311,10.2286628 8.01121311,10.4968206 C8.01121311,10.7649784 7.91910877,10.9891381 7.73489732,11.1693066 C7.55068587,11.3494751 7.31823206,11.439558 7.0375289,11.439558 Z" id="!" fill="#A1A5A8"></path>
                    <circle id="Oval-6" stroke="#A1A5A8" stroke-width="2" cx="7" cy="7" r="7"></circle>
                </g>
            </g>
        </g>
    </g>
</svg>