<?xml version="1.0" encoding="UTF-8"?>
<svg width="12px" height="10px" viewBox="0 0 12 10" version="1.1" xmlns="http://www.w3.org/2000/svg" xmlns:xlink="http://www.w3.org/1999/xlink">
    <!-- Generator: sketchtool 51.2 (57519) - http://www.bohemiancoding.com/sketch -->
    <title>A639F751-9212-4295-8641-0AC0EF1D9919-669-0000C902C972BDC9@1x</title>
    <desc>Created with sketchtool.</desc>
    <defs></defs>
    <g id="Page-1" stroke="none" stroke-width="1" fill="none" fill-rule="evenodd">
        <g id="Style-guide" transform="translate(-1017.000000, -1030.000000)" fill="#A1A5A8">
            <g id="icon/arrow/right/grey3" transform="translate(1016.000000, 1030.000000)">
                <path d="M12.5099705,5.9379762 C12.4732262,5.98102409 12.432893,6.02091593 12.389434,6.05718859 L8.9362762,9.51034644 C8.54575191,9.90087073 7.91258693,9.90087073 7.52206264,9.51034644 C7.13153834,9.11982215 7.13153834,8.48665717 7.52206264,8.09613288 L9.3290941,6.28910141 L1.99571439,6.28910141 C1.44342964,6.28910141 0.99571439,5.84138616 0.99571439,5.28910141 C0.99571439,4.73681666 1.44342964,4.28910141 1.99571439,4.28910141 L9.37488785,4.28910141 L7.52512627,2.43933983 C7.13460197,2.04881554 7.13460197,1.41565056 7.52512627,1.02512627 C7.91565056,0.634601974 8.54881554,0.634601974 8.93933983,1.02512627 L12.4748737,4.56066017 C12.8533259,4.93911237 12.8650248,5.54543585 12.5099705,5.9379762 Z"></path>
            </g>
        </g>
    </g>
</svg>