<?xml version="1.0" encoding="UTF-8"?>
<svg width="30px" height="31px" viewBox="0 0 30 31" version="1.1" xmlns="http://www.w3.org/2000/svg" xmlns:xlink="http://www.w3.org/1999/xlink">
    <!-- Generator: sketchtool 51.2 (57519) - http://www.bohemiancoding.com/sketch -->
    <title>7D35BE85-F4EE-41AD-AF79-25B6DF1C1210@1x</title>
    <desc>Created with sketchtool.</desc>
    <defs></defs>
    <g id="Page-1" stroke="none" stroke-width="1" fill="none" fill-rule="evenodd">
        <g id="Style-guide" transform="translate(-1131.000000, -1987.000000)" stroke="#A1A5A8">
            <g id="icon/cancel/pushed" transform="translate(1126.000000, 1982.000000)">
                <circle id="Oval-4" stroke-width="2" transform="translate(20.000000, 20.693434) rotate(-45.000000) translate(-20.000000, -20.693434) " cx="20" cy="20.6934342" r="14"></circle>
                <path d="M19.5,14.6934342 L19.5,20.1934342 L14,20.1934342 C13.7238576,20.1934342 13.5,20.4172918 13.5,20.6934342 C13.5,20.9695766 13.7238576,21.1934342 14,21.1934342 L19.5,21.1934342 L19.5,26.6934342 C19.5,26.9695766 19.7238576,27.1934342 20,27.1934342 C20.2761424,27.1934342 20.5,26.9695766 20.5,26.6934342 L20.5,21.1934342 L26,21.1934342 C26.2761424,21.1934342 26.5,20.9695766 26.5,20.6934342 C26.5,20.4172918 26.2761424,20.1934342 26,20.1934342 L20.5,20.1934342 L20.5,14.6934342 C20.5,14.4172918 20.2761424,14.1934342 20,14.1934342 C19.7238576,14.1934342 19.5,14.4172918 19.5,14.6934342 Z" id="Combined-Shape" fill="#A1A5A8" transform="translate(20.000000, 20.693434) rotate(-45.000000) translate(-20.000000, -20.693434) "></path>
            </g>
        </g>
    </g>
</svg>