<?xml version="1.0" encoding="UTF-8"?>
<svg width="30px" height="31px" viewBox="0 0 30 31" version="1.1" xmlns="http://www.w3.org/2000/svg" xmlns:xlink="http://www.w3.org/1999/xlink">
    <!-- Generator: sketchtool 51.2 (57519) - http://www.bohemiancoding.com/sketch -->
    <title>3B81774A-45AA-46DE-AC2C-CE28C662536E-669-0000C902F478E022@1x</title>
    <desc>Created with sketchtool.</desc>
    <defs></defs>
    <g id="Page-1" stroke="none" stroke-width="1" fill="none" fill-rule="evenodd">
        <g id="Style-guide" transform="translate(-1131.000000, -1857.000000)">
            <g id="icon/cancel" transform="translate(1125.000000, 1851.000000)">
                <g transform="translate(21.000000, 21.091883) rotate(-45.000000) translate(-21.000000, -21.091883) translate(6.500000, 6.591883)">
                    <circle id="Oval-4" stroke="#A1A5A8" stroke-width="2" cx="14.0746391" cy="14.9253609" r="14"></circle>
                    <path d="M13.5746391,8.92536085 L13.5746391,14.4253609 L8.07463915,14.4253609 C7.79849677,14.4253609 7.57463915,14.6492185 7.57463915,14.9253609 C7.57463915,15.2015032 7.79849677,15.4253609 8.07463915,15.4253609 L13.5746391,15.4253609 L13.5746391,20.9253609 C13.5746391,21.2015032 13.7984968,21.4253609 14.0746391,21.4253609 C14.3507815,21.4253609 14.5746391,21.2015032 14.5746391,20.9253609 L14.5746391,15.4253609 L20.0746391,15.4253609 C20.3507815,15.4253609 20.5746391,15.2015032 20.5746391,14.9253609 C20.5746391,14.6492185 20.3507815,14.4253609 20.0746391,14.4253609 L14.5746391,14.4253609 L14.5746391,8.92536085 C14.5746391,8.64921848 14.3507815,8.42536085 14.0746391,8.42536085 C13.7984968,8.42536085 13.5746391,8.64921848 13.5746391,8.92536085 Z" id="Combined-Shape" stroke="#FF9E27" fill="#FF9E27"></path>
                </g>
            </g>
        </g>
    </g>
</svg>