<?xml version="1.0" encoding="UTF-8"?>
<svg width="30px" height="31px" viewBox="0 0 30 31" version="1.1" xmlns="http://www.w3.org/2000/svg" xmlns:xlink="http://www.w3.org/1999/xlink">
    <!-- Generator: sketchtool 51.2 (57519) - http://www.bohemiancoding.com/sketch -->
    <title>FDE3E12E-7AA2-4F52-839A-A282EE921B15@1x</title>
    <desc>Created with sketchtool.</desc>
    <defs></defs>
    <g id="Page-1" stroke="none" stroke-width="1" fill="none" fill-rule="evenodd">
        <g id="Style-guide" transform="translate(-1131.000000, -1922.000000)" stroke="#FF9E27">
            <g id="icon/cancel/hover" transform="translate(1125.000000, 1916.000000)">
                <circle id="Oval-4" stroke-width="2" transform="translate(21.000000, 21.693434) rotate(-45.000000) translate(-21.000000, -21.693434) " cx="21" cy="21.6934342" r="14"></circle>
                <path d="M20.5,15.6934342 L20.5,21.1934342 L15,21.1934342 C14.7238576,21.1934342 14.5,21.4172918 14.5,21.6934342 C14.5,21.9695766 14.7238576,22.1934342 15,22.1934342 L20.5,22.1934342 L20.5,27.6934342 C20.5,27.9695766 20.7238576,28.1934342 21,28.1934342 C21.2761424,28.1934342 21.5,27.9695766 21.5,27.6934342 L21.5,22.1934342 L27,22.1934342 C27.2761424,22.1934342 27.5,21.9695766 27.5,21.6934342 C27.5,21.4172918 27.2761424,21.1934342 27,21.1934342 L21.5,21.1934342 L21.5,15.6934342 C21.5,15.4172918 21.2761424,15.1934342 21,15.1934342 C20.7238576,15.1934342 20.5,15.4172918 20.5,15.6934342 Z" id="Combined-Shape" fill="#FF9E27" transform="translate(21.000000, 21.693434) rotate(-45.000000) translate(-21.000000, -21.693434) "></path>
            </g>
        </g>
    </g>
</svg>