<?xml version="1.0" encoding="UTF-8"?>
<svg width="16px" height="16px" viewBox="0 0 16 16" version="1.1" xmlns="http://www.w3.org/2000/svg" xmlns:xlink="http://www.w3.org/1999/xlink">
    <!-- Generator: sketchtool 51.2 (57519) - http://www.bohemiancoding.com/sketch -->
    <title>80A16E49-2223-4AF8-BFB3-5CAE93987E18-669-0000C902C8451B8F@3x</title>
    <desc>Created with sketchtool.</desc>
    <defs></defs>
    <g id="Page-1" stroke="none" stroke-width="1" fill="none" fill-rule="evenodd">
        <g id="Style-guide" transform="translate(-500.000000, -1027.000000)" stroke="#A1A5A8">
            <g id="icon/clock" transform="translate(501.000000, 1028.000000)">
                <g>
                    <path d="M7.99909785,5.48764447 C7.99909785,6.10153383 7.99566737,6.71449727 7.99995547,7.32838663 C8.00252834,7.59783128 7.89361043,7.77560919 7.67148651,7.8941278 C7.02484003,8.23764659 6.38162403,8.58949871 5.7366928,8.93764712 C5.40479335,9.11635096 5.02829759,8.89320265 5.00171132,8.49412826 C4.98627414,8.27190587 5.07546676,8.09135018 5.26157059,7.98764639 C5.67837455,7.75523881 6.10032424,7.53209049 6.52055869,7.30523846 C6.66120859,7.22931248 6.80185848,7.15153464 6.94508124,7.07838644 C6.98796231,7.05523827 7.00254187,7.02653454 7.00254187,6.97468265 C7.00168425,6.03301526 7.00168425,6.02862509 7.00168425,5.08603178 C7.00168425,4.90177238 6.99996901,4.7184389 7.00254187,4.53510543 C7.00597236,4.28417931 7.16806279,4.06936433 7.37474953,4.01566058 C7.6311783,3.94899387 7.86959703,4.10362361 7.95793203,4.31936452 C7.99566737,4.41195718 7.99909785,4.5064017 7.99909785,4.603624 L7.99909785,5.48764447 Z" id="Combined-Shape" fill="#A1A5A8"></path>
                    <circle id="Oval-6" stroke-width="2" cx="7" cy="7" r="7"></circle>
                </g>
            </g>
        </g>
    </g>
</svg>