<?xml version="1.0" encoding="UTF-8"?>
<svg width="12px" height="12px" viewBox="0 0 12 12" version="1.1" xmlns="http://www.w3.org/2000/svg" xmlns:xlink="http://www.w3.org/1999/xlink">
    <!-- Generator: sketchtool 51.2 (57519) - http://www.bohemiancoding.com/sketch -->
    <title>E4C2F5A3-FB3E-4ED7-84AA-D7884CD72AD3@1x</title>
    <desc>Created with sketchtool.</desc>
    <defs></defs>
    <g id="Page-1" stroke="none" stroke-width="1" fill="none" fill-rule="evenodd">
        <g id="Style-guide" transform="translate(-868.000000, -1095.000000)" fill="#A1A5A8" stroke="#A1A5A8">
            <path d="M873.5,1095 L873.5,1100.5 L868,1100.5 C867.723858,1100.5 867.5,1100.72386 867.5,1101 C867.5,1101.27614 867.723858,1101.5 868,1101.5 L873.5,1101.5 L873.5,1107 C873.5,1107.27614 873.723858,1107.5 874,1107.5 C874.276142,1107.5 874.5,1107.27614 874.5,1107 L874.5,1101.5 L880,1101.5 C880.276142,1101.5 880.5,1101.27614 880.5,1101 C880.5,1100.72386 880.276142,1100.5 880,1100.5 L874.5,1100.5 L874.5,1095 C874.5,1094.72386 874.276142,1094.5 874,1094.5 C873.723858,1094.5 873.5,1094.72386 873.5,1095 Z" id="icon/close/grey" transform="translate(874.000000, 1101.000000) rotate(-585.000000) translate(-874.000000, -1101.000000) "></path>
        </g>
    </g>
</svg>