<?xml version="1.0" encoding="UTF-8"?>
<svg width="30px" height="30px" viewBox="0 0 30 30" version="1.1" xmlns="http://www.w3.org/2000/svg" xmlns:xlink="http://www.w3.org/1999/xlink">
    <!-- Generator: sketchtool 51.2 (57519) - http://www.bohemiancoding.com/sketch -->
    <title>E57A4135-1032-4B56-95EE-F69B99FB79AD-669-0000C902CB31AD88@1x</title>
    <desc>Created with sketchtool.</desc>
    <defs></defs>
    <g id="Page-1" stroke="none" stroke-width="1" fill="none" fill-rule="evenodd">
        <g id="Style-guide" transform="translate(-710.000000, -1153.000000)">
            <g id="Icon/Countdown-Timers" transform="translate(711.000000, 1154.000000)">
                <g>
                    <path d="M15.9981957,10.9752889 C15.9981957,12.2030677 15.9913347,13.4289945 15.9999109,14.6567733 C16.0050567,15.1956626 15.7872209,15.5512184 15.342973,15.7882556 C14.0496801,16.4752932 12.7632481,17.1789974 11.4733856,17.8752942 C10.8095867,18.2327019 10.0565952,17.7864053 10.0034226,16.9882565 C9.97254828,16.5438117 10.1509335,16.1827004 10.5231412,15.9752928 C11.3567491,15.5104776 12.2006485,15.064181 13.0411174,14.6104769 C13.3224172,14.458625 13.603717,14.3030693 13.8901625,14.1567729 C13.9759246,14.1104765 14.0050837,14.0530691 14.0050837,13.9493653 C14.0033685,12.0660305 14.0033685,12.0572502 14.0033685,10.1720636 C14.0033685,9.80354475 13.999938,9.4368778 14.0050837,9.07021085 C14.0119447,8.56835862 14.3361256,8.13872866 14.7494991,8.03132117 C15.2623566,7.89798773 15.7391941,8.20724723 15.9158641,8.63872904 C15.9913347,8.82391437 15.9981957,9.0128034 15.9981957,9.207248 L15.9981957,10.9752889 Z" id="Combined-Shape" fill="#3399FF"></path>
                    <circle id="Oval-6" stroke="#3399FF" stroke-width="2" cx="14" cy="14" r="14"></circle>
                </g>
            </g>
        </g>
    </g>
</svg>