<?xml version="1.0" encoding="UTF-8"?>
<svg width="19px" height="14px" viewBox="0 0 19 14" version="1.1" xmlns="http://www.w3.org/2000/svg" xmlns:xlink="http://www.w3.org/1999/xlink">
    <!-- Generator: sketchtool 51.2 (57519) - http://www.bohemiancoding.com/sketch -->
    <title>27ED458D-267A-409D-A0FA-B75E3E672D71@1x</title>
    <desc>Created with sketchtool.</desc>
    <defs></defs>
    <g id="Page-1" stroke="none" stroke-width="1" fill="none" fill-rule="evenodd">
        <g id="Style-guide" transform="translate(-499.000000, -1161.000000)" stroke="#A1A5A8">
            <g id="icon/cvvcard/grey" transform="translate(500.000000, 1162.000000)">
                <rect id="Icon/email" stroke-width="2" stroke-linecap="round" stroke-linejoin="round" x="2.47058824" y="-2.47058824" width="11.6470588" height="16.5882353" rx="2"></rect>
                <path d="M3.63144859,7.98930896 C3.26602645,7.98930896 2.94628688,7.90816638 2.67222027,7.74587881 C2.39815367,7.58359123 2.18614306,7.3512284 2.03618209,7.04878337 C1.88622111,6.74633833 1.81124175,6.39226165 1.81124175,5.98654271 C1.81124175,5.58451211 1.88622111,5.23227958 2.03618209,4.92983454 C2.18614306,4.62738951 2.39815367,4.39502669 2.67222027,4.23273911 C2.94628688,4.07045153 3.26602645,3.98930896 3.63144859,3.98930896 C4.06926569,3.98930896 4.45364264,4.11286697 4.784591,4.35998669 C4.84319643,4.40424694 4.88542619,4.45219482 4.91128153,4.50383178 C4.93713687,4.55546874 4.95006435,4.62185811 4.95006435,4.7030019 C4.95006435,4.81734088 4.91990023,4.91415872 4.85957111,4.99345833 C4.79924198,5.07275795 4.72598628,5.11240716 4.63980182,5.11240716 C4.58809114,5.11240716 4.54155222,5.10410849 4.50018368,5.08751089 C4.45881513,5.0709133 4.41055256,5.04417313 4.3553945,5.00728959 C4.23473624,4.92983416 4.12097445,4.87450968 4.01410571,4.84131449 C3.90723697,4.8081193 3.79692251,4.79152196 3.68315902,4.79152196 C3.37634231,4.79152196 3.1479569,4.89018395 2.99799593,5.08751089 C2.84803496,5.28483784 2.77305559,5.58451211 2.77305559,5.98654271 C2.77305559,6.39226165 2.84803496,6.69378008 2.99799593,6.89110702 C3.1479569,7.08843396 3.37634231,7.18709596 3.68315902,7.18709596 C3.78658038,7.18709596 3.88655286,7.16957654 3.98307946,7.13453717 C4.07960606,7.09949781 4.20370983,7.0450954 4.3553945,6.97132832 C4.42778945,6.93075643 4.48122302,6.90309419 4.5156968,6.88834077 C4.55017059,6.87358735 4.59153851,6.86621076 4.63980182,6.86621076 C4.72598628,6.86621076 4.79924198,6.90585997 4.85957111,6.98515958 C4.91990023,7.06445919 4.95006435,7.16127703 4.95006435,7.27561601 C4.95006435,7.35307145 4.93713687,7.41853875 4.91128153,7.47201988 C4.88542619,7.52550102 4.84319643,7.57437098 4.784591,7.61863123 C4.45364264,7.86575095 4.06926569,7.98930896 3.63144859,7.98930896 Z M9.06104287,4.27699914 C9.09896403,4.18847864 9.1523976,4.12208926 9.22134517,4.07782901 C9.29029275,4.03356876 9.36613394,4.01143897 9.44887103,4.01143897 C9.57297666,4.01143897 9.68501479,4.05385441 9.78498877,4.13868655 C9.88496275,4.22351869 9.93494899,4.33047936 9.93494899,4.45957175 C9.93494899,4.52227377 9.91943602,4.586819 9.88840961,4.65320937 L8.52325448,7.66842376 C8.47843856,7.76800932 8.41121568,7.84454152 8.32158384,7.89802265 C8.23195199,7.95150378 8.13542684,7.97824395 8.03200548,7.97824395 C7.92858411,7.97824395 7.83205896,7.95150378 7.74242711,7.89802265 C7.65279527,7.84454152 7.58557239,7.76800932 7.54075647,7.66842376 L6.17560134,4.65320937 C6.14802231,4.59419571 6.134233,4.52965048 6.134233,4.45957175 C6.134233,4.33416771 6.18594291,4.22812912 6.28936427,4.1414528 C6.39278563,4.05477648 6.50827108,4.01143897 6.63582409,4.01143897 C6.71856118,4.01143897 6.7952642,4.03356876 6.86593547,4.07782901 C6.93660673,4.12208926 6.99090213,4.18847864 7.0288233,4.27699914 L8.0475186,6.63384561 L9.06104287,4.27699914 Z M13.9373356,4.27699914 C13.9752568,4.18847864 14.0286904,4.12208926 14.0976379,4.07782901 C14.1665855,4.03356876 14.2424267,4.01143897 14.3251638,4.01143897 C14.4492694,4.01143897 14.5613075,4.05385441 14.6612815,4.13868655 C14.7612555,4.22351869 14.8112418,4.33047936 14.8112418,4.45957175 C14.8112418,4.52227377 14.7957288,4.586819 14.7647024,4.65320937 L13.3995472,7.66842376 C13.3547313,7.76800932 13.2875084,7.84454152 13.1978766,7.89802265 C13.1082448,7.95150378 13.0117196,7.97824395 12.9082982,7.97824395 C12.8048769,7.97824395 12.7083517,7.95150378 12.6187199,7.89802265 C12.529088,7.84454152 12.4618652,7.76800932 12.4170492,7.66842376 L11.0518941,4.65320937 C11.0243151,4.59419571 11.0105258,4.52965048 11.0105258,4.45957175 C11.0105258,4.33416771 11.0622357,4.22812912 11.165657,4.1414528 C11.2690784,4.05477648 11.3845638,4.01143897 11.5121169,4.01143897 C11.5948539,4.01143897 11.671557,4.03356876 11.7422282,4.07782901 C11.8128995,4.12208926 11.8671949,4.18847864 11.9051161,4.27699914 L12.9238114,6.63384561 L13.9373356,4.27699914 Z" id="CVV" stroke-width="0.8" fill="#A1A5A8"></path>
            </g>
        </g>
    </g>
</svg>