<?xml version="1.0" encoding="UTF-8"?>
<svg width="19px" height="14px" viewBox="0 0 19 14" version="1.1" xmlns="http://www.w3.org/2000/svg" xmlns:xlink="http://www.w3.org/1999/xlink">
    <!-- Generator: sketchtool 51.2 (57519) - http://www.bohemiancoding.com/sketch -->
    <title>184E951B-2554-46D1-BE05-03490F0934F9@1x</title>
    <desc>Created with sketchtool.</desc>
    <defs></defs>
    <g id="Page-1" stroke="none" stroke-width="1" fill="none" fill-rule="evenodd">
        <g id="Style-guide" transform="translate(-274.000000, -1161.000000)" stroke="#A1A5A8">
            <g id="icon/datecard/grey" transform="translate(275.000000, 1162.000000)">
                <rect id="Icon/email" stroke-width="2" stroke-linecap="round" stroke-linejoin="round" x="2.47058824" y="-2.47058824" width="11.6470588" height="16.5882353" rx="2"></rect>
                <path d="M7.3861999,5.68994857 C7.65859276,5.76843465 7.87211787,5.91155418 8.02678161,6.11931145 C8.18144536,6.32706872 8.25877607,6.57868209 8.25877607,6.8741591 C8.25877607,7.15578562 8.18259955,7.40047385 8.03024422,7.60823112 C7.87788889,7.81598839 7.6620554,7.97642077 7.38273729,8.08953306 C7.10341918,8.20264535 6.77678348,8.25920065 6.4028204,8.25920065 C6.10272656,8.25920065 5.81417912,8.21880401 5.53716943,8.13800951 C5.26015973,8.05721502 5.02008826,7.94064185 4.81694782,7.78828652 C4.73846174,7.72826776 4.68306063,7.66478732 4.65074283,7.59784331 C4.61842504,7.5308993 4.60226638,7.45126021 4.60226638,7.35892364 C4.60226638,7.21580197 4.64150883,7.09461204 4.71999491,6.99535023 C4.79848099,6.89608843 4.89543293,6.84645827 5.01085364,6.84645827 C5.07548923,6.84645827 5.13319872,6.85684598 5.18398383,6.8776217 C5.23476894,6.89839743 5.30402033,6.93186893 5.39174006,6.97803721 C5.41020738,6.98727087 5.43213698,6.99765858 5.45752954,7.00920065 C5.48292209,7.02074272 5.51177684,7.03343881 5.54409463,7.04728929 C5.69183314,7.12115854 5.82456496,7.17771384 5.94229408,7.21695688 C6.0600232,7.25619992 6.19275502,7.27582115 6.34049353,7.27582115 C6.59903591,7.27582115 6.78486046,7.23427032 6.89797275,7.15116741 C7.01108504,7.0680645 7.06764034,6.92956173 7.06764034,6.73565494 C7.06764034,6.55559864 7.00993085,6.42632939 6.89451015,6.34784331 C6.77908944,6.26935723 6.58980232,6.23011478 6.32664311,6.23011478 L5.89728023,6.23011478 C5.75877538,6.23011478 5.65028155,6.18163881 5.57179546,6.08468541 C5.49330938,5.98773202 5.45406693,5.87231305 5.45406693,5.73842503 C5.45406693,5.60453701 5.49330938,5.48911803 5.57179546,5.39216464 C5.65028155,5.29521125 5.75877538,5.24673528 5.89728023,5.24673528 L6.20198937,5.24673528 C6.45591492,5.24673528 6.64058528,5.2098012 6.75600599,5.13593195 C6.8714267,5.0620627 6.92913619,4.94433535 6.92913619,4.78274636 C6.92913619,4.61192371 6.87835184,4.47919189 6.77678161,4.38454691 C6.67521139,4.28990193 6.53440024,4.24258015 6.35434394,4.24258015 C6.22507275,4.24258015 6.10388283,4.26335557 5.99077053,4.30490702 C5.87765824,4.34645848 5.75185156,4.40185958 5.61334671,4.47111201 L5.46791735,4.54036408 C5.38019761,4.58653237 5.31094623,4.62000387 5.26016112,4.6407796 C5.209376,4.66155532 5.15166652,4.67194303 5.08703092,4.67194303 C4.97161022,4.67194303 4.87465828,4.62231287 4.7961722,4.52305107 C4.71768612,4.42378926 4.67844366,4.30259933 4.67844366,4.15947766 C4.67844366,4.06252426 4.69460232,3.98173098 4.72692012,3.91709539 C4.75923792,3.85245979 4.81463902,3.79013354 4.8931251,3.73011478 C5.09164872,3.58237627 5.32594924,3.4669573 5.59603369,3.38385439 C5.86611814,3.30075148 6.13966112,3.25920065 6.41667081,3.25920065 C6.7583161,3.25920065 7.05955963,3.31460176 7.32041042,3.42540564 C7.58126122,3.53620951 7.78209024,3.69317932 7.9229035,3.89631976 C8.06371676,4.09946021 8.13412233,4.33491492 8.13412233,4.60269095 C8.13412233,4.85661651 8.06833352,5.07937513 7.93675391,5.2709735 C7.80517431,5.46257188 7.62165814,5.60222884 7.3861999,5.68994857 Z M12.1299672,7.19271866 C12.3377245,7.19271866 12.4900775,7.23426949 12.5870309,7.31737239 C12.6839843,7.4004753 12.7324603,7.5251278 12.7324603,7.69133361 C12.7324603,8.0329789 12.5316313,8.20379899 12.1299672,8.20379899 L9.72692012,8.20379899 C9.32525606,8.20379899 9.12442704,8.0329789 9.12442704,7.69133361 C9.12442704,7.5251278 9.17290301,7.4004753 9.26985641,7.31737239 C9.3668098,7.23426949 9.51916285,7.19271866 9.72692012,7.19271866 L10.2878619,7.19271866 L10.2878619,4.69271866 L9.73384533,5.01820342 C9.65535925,5.0643717 9.57456596,5.0874555 9.49146305,5.0874555 C9.36219186,5.0874555 9.25138965,5.0309002 9.15905308,4.91778791 C9.06671652,4.80467562 9.02054893,4.67886893 9.02054893,4.54036408 C9.02054893,4.35107413 9.10134221,4.2079546 9.2629312,4.1110012 L10.3709644,3.46695688 C10.5741049,3.35153618 10.7657004,3.29382669 10.9457567,3.29382669 C11.1304298,3.29382669 11.2793203,3.3492278 11.3924326,3.46003167 C11.5055449,3.57083555 11.5621002,3.72088022 11.5621002,3.91017018 L11.5621002,7.19271866 L12.1299672,7.19271866 Z" id="31" stroke-width="0.4" fill="#A1A5A8"></path>
            </g>
        </g>
    </g>
</svg>