<?xml version="1.0" encoding="UTF-8"?>
<svg width="20px" height="17px" viewBox="0 0 20 17" version="1.1" xmlns="http://www.w3.org/2000/svg" xmlns:xlink="http://www.w3.org/1999/xlink">
    <!-- Generator: sketchtool 51.2 (57519) - http://www.bohemiancoding.com/sketch -->
    <title>7F49E02F-1898-46B1-8198-7F3ACA3CCF02-669-0000C76E6FDB2BDD@1x</title>
    <desc>Created with sketchtool.</desc>
    <defs></defs>
    <g id="Page-1" stroke="none" stroke-width="1" fill="none" fill-rule="evenodd">
        <g id="Coach-Activity-Log-Expanded" transform="translate(-420.000000, -559.000000)">
            <g id="Card/Activity-Log/expanded" transform="translate(120.000000, 150.000000)">
                <g id="info-field">
                    <g transform="translate(30.000000, 398.000000)">
                        <g id="icon/departure" transform="translate(271.000000, 11.000000)">
                            <g>
                                <path d="M8.2505,8.9659 L5.6675,6.3839 C5.2765,5.9929 5.2765,5.3589 5.6675,4.9689 C6.0575,4.5789 6.6915,4.5789 7.0815,4.9689 L8.0105,5.8969 L8.0105,1.1464492 C8.0105,0.594449202 8.4575,0.146449202 9.0105,0.146449202 C9.5625,0.146449202 10.0105,0.594449202 10.0105,1.1464492 L10.0105,5.9309 L10.9705,4.9709 C11.3615,4.5809 11.9945,4.5809 12.3845,4.9709 C12.7755,5.3619 12.7755,5.9949 12.3845,6.3859 L9.7335,9.0369 C9.3555,9.4149 8.7515,9.4279 8.3585,9.0739 C8.3195,9.0409 8.2835,9.0049 8.2505,8.9659 Z" id="Fill-1" fill="#FF9E27" transform="translate(9.026000, 4.738335) rotate(-180.000000) translate(-9.026000, -4.738335) "></path>
                                <path d="M12.6793,11.2214 C15.8283,11.5374 18.0233,12.2494 18.0233,13.0764 C18.0233,14.1994 13.9883,15.1094 9.0113,15.1094 C4.0343,15.1094 0.0003,14.1994 0.0003,13.0764 C0.0003,12.2464 2.2093,11.5334 5.3753,11.2174" id="Stroke-3" stroke="#FF9E27" stroke-width="2" stroke-linecap="round" stroke-linejoin="round"></path>
                            </g>
                        </g>
                    </g>
                </g>
            </g>
        </g>
    </g>
</svg>