<?xml version="1.0" encoding="UTF-8"?>
<svg width="14px" height="14px" viewBox="0 0 14 14" version="1.1" xmlns="http://www.w3.org/2000/svg" xmlns:xlink="http://www.w3.org/1999/xlink">
    <!-- Generator: sketchtool 51.2 (57519) - http://www.bohemiancoding.com/sketch -->
    <title>6807A4B7-15B0-4A8C-9723-693A7EB0C80F-669-0000C902D92B927E@1x</title>
    <desc>Created with sketchtool.</desc>
    <defs></defs>
    <g id="Page-1" stroke="none" stroke-width="1" fill="none" fill-rule="evenodd">
        <g id="Style-guide" transform="translate(-456.000000, -2340.000000)" fill="#FF9E27" fill-rule="nonzero">
            <g id="icon-edit" transform="translate(448.000000, 2332.000000)">
                <g id="icon/edit/orange" transform="translate(8.000000, 8.000000)">
                    <path d="M1.56880338,9.41989801 L8.64372028,2.34498112 L11.648399,5.34965979 L4.57348206,12.4245767 L1.56880338,9.41989801 Z M13.7683456,2.09821656 C14.0772181,2.41418224 14.0772181,2.9188835 13.7683456,3.23484918 L12.7363156,4.26656187 L9.72768577,1.26760041 L10.7597158,0.235887728 C11.0768312,-0.0786292427 11.5883286,-0.0786292427 11.905444,0.235887728 L13.7683456,2.09821656 Z M0.0108609052,13.3596228 L0.491891839,10.4918113 L3.5092677,13.5082594 L0.640574128,13.9891424 C0.464962379,14.0251028 0.28302407,13.9704941 0.156269517,13.8437785 C0.0295149639,13.717063 -0.0251105678,13.5351806 0.0108609052,13.3596228 Z"></path>
                </g>
            </g>
        </g>
    </g>
</svg>