<?xml version="1.0" encoding="UTF-8"?>
<svg width="20px" height="12px" viewBox="0 0 20 12" version="1.1" xmlns="http://www.w3.org/2000/svg" xmlns:xlink="http://www.w3.org/1999/xlink">
    <!-- Generator: sketchtool 51.2 (57519) - http://www.bohemiancoding.com/sketch -->
    <title>BC937D80-A8C3-4C85-9A8F-BC6497DF8343@1x</title>
    <desc>Created with sketchtool.</desc>
    <defs></defs>
    <g id="Page-1" stroke="none" stroke-width="1" fill="none" fill-rule="evenodd">
        <g id="Style-guide" transform="translate(-864.000000, -1029.000000)" stroke="#A1A5A8" stroke-width="2">
            <g id="icon/ice" transform="translate(865.000000, 1030.000000)">
                <path d="M17.6740924,4.97795783 C17.6740924,5.43888763 13.7565991,9.95590964 8.92407351,9.95590964 C6.66911528,9.95590964 4.6133851,8.9790614 3.06194696,7.88705818 C1.28858411,6.63884989 0.174104418,5.24018576 0.174104418,4.97795783 C0.174104418,4.48631808 4.09159766,6.02409636e-06 8.92407351,6.02409636e-06 C13.7565991,6.02409636e-06 17.6740924,4.51702803 17.6740924,4.97795783 Z M11.1532329,4.97795783 C11.1532329,6.209105 10.1552137,7.20708457 8.9241062,7.20708457 C7.69295903,7.20708457 6.69493976,6.209105 6.69493976,4.97795783 C6.69493976,3.74681066 7.69295903,2.7488311 8.9241062,2.7488311 C10.1552137,2.7488311 11.1532329,3.74681066 11.1532329,4.97795783 Z" id="icon/ice/grey"></path>
            </g>
        </g>
    </g>
</svg>