<?xml version="1.0" encoding="UTF-8"?>
<svg width="22px" height="22px" viewBox="0 0 22 22" version="1.1" xmlns="http://www.w3.org/2000/svg" xmlns:xlink="http://www.w3.org/1999/xlink">
    <!-- Generator: sketchtool 51.2 (57519) - http://www.bohemiancoding.com/sketch -->
    <title>E805EF73-E057-40F6-B72F-0DB4F5474243@1x</title>
    <desc>Created with sketchtool.</desc>
    <defs></defs>
    <g id="Page-1" stroke="none" stroke-width="1" fill="none" fill-rule="evenodd">
        <g id="Style-guide" transform="translate(-196.000000, -1090.000000)" fill="#A1A5A8" fill-rule="nonzero" stroke="#A1A5A8">
            <path d="M206.999812,1108.66732 C202.775615,1108.66732 199.338892,1105.2306 199.338892,1101.0064 C199.338892,1096.7822 202.775615,1093.34567 206.999812,1093.34567 C211.224008,1093.34567 214.660732,1096.7822 214.660732,1101.0064 C214.660732,1105.2306 211.224008,1108.66732 206.999812,1108.66732 Z M206.999812,1094.09851 C203.190808,1094.09851 200.091734,1097.1974 200.091734,1101.0064 C200.091734,1104.81559 203.190808,1107.91448 206.999812,1107.91448 C210.808816,1107.91448 213.90789,1104.81559 213.90789,1101.0064 C213.90789,1097.1974 210.808816,1094.09851 206.999812,1094.09851 Z M206.999812,1104.75442 C204.933072,1104.75442 203.2516,1103.07314 203.2516,1101.0064 C203.2516,1098.93966 204.933072,1097.258 206.999812,1097.258 C209.066551,1097.258 210.748212,1098.93947 210.748212,1101.0064 C210.748212,1103.07333 209.066551,1104.75442 206.999812,1104.75442 Z M206.999812,1098.01084 C205.348265,1098.01084 204.004442,1099.35466 204.004442,1101.0064 C204.004442,1102.65776 205.348265,1104.00158 206.999812,1104.00158 C208.651547,1104.00158 209.99537,1102.65776 209.99537,1101.0064 C209.99537,1099.35466 208.651547,1098.01084 206.999812,1098.01084 Z M206.999812,1094.09851 C206.792027,1094.09851 206.623391,1093.92987 206.623391,1093.72209 L206.623391,1091.37642 C206.623391,1091.16864 206.792027,1091 206.999812,1091 C207.207596,1091 207.376233,1091.16864 207.376233,1091.37642 L207.376233,1093.7219 C207.376233,1093.92987 207.207784,1094.09851 206.999812,1094.09851 Z M206.999812,1111 C206.792027,1111 206.623391,1110.83136 206.623391,1110.62358 L206.623391,1108.2909 C206.623391,1108.08311 206.792027,1107.91448 206.999812,1107.91448 C207.207596,1107.91448 207.376233,1108.08311 207.376233,1108.2909 L207.376233,1110.62358 C207.376233,1110.83136 207.207784,1111 206.999812,1111 Z M199.715313,1101.38282 L197.376421,1101.38282 C197.168637,1101.38282 197,1101.21418 197,1101.0064 C197,1100.79843 197.168637,1100.62998 197.376421,1100.62998 L199.715313,1100.62998 C199.923097,1100.62998 200.091734,1100.79843 200.091734,1101.0064 C200.091734,1101.21418 199.923097,1101.38282 199.715313,1101.38282 Z M216.623579,1101.38282 L214.284311,1101.38282 C214.076526,1101.38282 213.90789,1101.21418 213.90789,1101.0064 C213.90789,1100.79843 214.076526,1100.62998 214.284311,1100.62998 L216.623579,1100.62998 C216.831363,1100.62998 217,1100.79843 217,1101.0064 C217,1101.21418 216.831363,1101.38282 216.623579,1101.38282 Z" id="icon/geolocation/grey"></path>
        </g>
    </g>
</svg>