<?xml version="1.0" encoding="UTF-8"?>
<svg width="73px" height="22px" viewBox="0 0 73 22" version="1.1" xmlns="http://www.w3.org/2000/svg" xmlns:xlink="http://www.w3.org/1999/xlink">
    <!-- Generator: sketchtool 51.2 (57519) - http://www.bohemiancoding.com/sketch -->
    <title>9EC4EDE8-3A2A-41B7-A104-72BE7C24FFB0-669-0000C76EE1A60628@1x</title>
    <desc>Created with sketchtool.</desc>
    <defs></defs>
    <g id="Page-1" stroke="none" stroke-width="1" fill="none" fill-rule="evenodd">
        <g id="My-Profile---Terms-of-Use" transform="translate(-681.000000, -28.000000)" fill="#3399FF">
            <g id="Header">
                <g id="Group-2" transform="translate(681.000000, 28.000000)">
                    <g id="logo/go/header">
                        <path d="M46.3084886,9.61549101 C46.9765389,9.61549101 47.5079345,9.80313321 47.9026915,10.1784232 C48.2974485,10.5537133 48.494824,11.0557829 48.494824,11.6846473 L48.494824,16.9792531 C48.494824,17.9935505 48.4189104,18.7694763 48.2670807,19.3070539 C48.1152511,19.8446315 47.8419619,20.2655586 47.447205,20.5698479 C47.052448,20.8741371 46.4603214,21.1378504 45.6708075,21.3609959 C44.8812935,21.5638553 44.0057559,21.7210691 43.0441684,21.8326418 C42.0825809,21.9442145 41.1867996,22 40.3567978,22 C38.0287438,22 36.0094403,21.5587873 34.2988268,20.6763485 C32.5882132,19.7939098 31.2774373,18.5260571 30.3664596,16.8727524 C29.455482,15.2194477 29,13.2568117 29,10.9847856 C29,8.7533314 29.455482,6.81098107 30.3664596,5.15767635 C31.2774373,3.50437163 32.5730305,2.23144752 34.2532781,1.33886584 C35.9335258,0.446284149 37.8971592,0 40.1442374,0 C41.5613137,0 42.8316024,0.167356556 43.9551415,0.502074689 C45.0786806,0.836792822 46.1262891,1.34900531 47.0979986,2.03872752 C47.4421457,2.28215889 47.6901304,2.54587225 47.84196,2.82987552 C47.9937896,3.11387878 48.0697032,3.47902036 48.0697032,3.9253112 C48.0697032,4.55417557 47.8976323,5.08667371 47.5534852,5.52282158 C47.2093381,5.95896945 46.7943434,6.17704011 46.3084886,6.17704011 C45.9845855,6.17704011 45.7062353,6.13139741 45.47343,6.04011065 C45.2406246,5.94882389 44.9420308,5.79161015 44.5776398,5.56846473 C43.8286137,5.16274578 43.1251471,4.86860396 42.4672188,4.68603043 C41.8092905,4.5034569 41.095702,4.41217151 40.326432,4.41217151 C38.403257,4.41217151 36.9710192,4.94974105 36.0296756,6.02489627 C35.0883321,7.10005148 34.6176674,8.7533314 34.6176674,10.9847856 C34.6176674,13.2770977 35.1085757,14.9760203 36.0904072,16.0816044 C37.0722386,17.1871886 38.5753292,17.7399723 40.5997239,17.7399723 C41.5714334,17.7399723 42.5330065,17.6385441 43.484472,17.4356846 L43.484472,13.4495159 L41.2981366,13.4495159 C40.6300864,13.4495159 40.1138735,13.2821593 39.7494824,12.9474412 C39.3850913,12.6127231 39.2028986,12.1410819 39.2028986,11.5325035 C39.2028986,10.923925 39.3850913,10.4522838 39.7494824,10.1175657 C40.1138735,9.78284757 40.6300864,9.61549101 41.2981366,9.61549101 L46.3084886,9.61549101 Z M62.3112491,22 C60.1249028,22 58.2270612,21.5486444 56.6176674,20.6459198 C55.0082735,19.7431951 53.7683503,18.4651996 52.8978606,16.8118949 C52.0273708,15.1585902 51.5921325,13.2162398 51.5921325,10.9847856 C51.5921325,8.7533314 52.0273708,6.81098107 52.8978606,5.15767635 C53.7683503,3.50437163 55.0082735,2.23144752 56.6176674,1.33886584 C58.2270612,0.446284149 60.1249028,0 62.3112491,0 C64.4975955,0 66.3954371,0.446284149 68.0048309,1.33886584 C69.6142247,2.23144752 70.849087,3.50437163 71.7094548,5.15767635 C72.5698226,6.81098107 73,8.7533314 73,10.9847856 C73,13.2162398 72.5647617,15.1585902 71.6942719,16.8118949 C70.8237822,18.4651996 69.583859,19.7431951 67.9744651,20.6459198 C66.3650713,21.5486444 64.4773515,22 62.3112491,22 Z M62.3112491,17.7095436 C60.6917333,17.7095436 59.4265056,17.1415456 58.515528,16.0055325 C57.6045503,14.8695194 57.1490683,13.1959539 57.1490683,10.9847856 C57.1490683,8.77361734 57.6045503,7.1051232 58.515528,5.97925311 C59.4265056,4.85338303 60.6917333,4.29045643 62.3112491,4.29045643 C63.910521,4.29045643 65.1706878,4.85845444 66.0917874,5.9944675 C67.0128871,7.13048055 67.47343,8.79390329 67.47343,10.9847856 C67.47343,13.1756679 67.017948,14.8441621 66.1069703,15.9903181 C65.1959927,17.1364741 63.9307649,17.7095436 62.3112491,17.7095436 Z M10,7 L23,7 C23.5522847,7 24,7.44771525 24,8 C24,8.55228475 23.5522847,9 23,9 L10,9 C9.44771525,9 9,8.55228475 9,8 C9,7.44771525 9.44771525,7 10,7 Z M16,15 L23,15 C23.5522847,15 24,15.4477153 24,16 C24,16.5522847 23.5522847,17 23,17 L16,17 C15.4477153,17 15,16.5522847 15,16 C15,15.4477153 15.4477153,15 16,15 Z M1,11 L23,11 C23.5522847,11 24,11.4477153 24,12 C24,12.5522847 23.5522847,13 23,13 L1,13 C0.44771525,13 6.76353751e-17,12.5522847 0,12 C-6.76353751e-17,11.4477153 0.44771525,11 1,11 Z"></path>
                    </g>
                </g>
            </g>
        </g>
    </g>
</svg>