<?xml version="1.0" encoding="UTF-8"?>
<svg width="19px" height="16px" viewBox="0 0 19 16" version="1.1" xmlns="http://www.w3.org/2000/svg" xmlns:xlink="http://www.w3.org/1999/xlink">
    <!-- Generator: sketchtool 51.2 (57519) - http://www.bohemiancoding.com/sketch -->
    <title>72082AB5-AF1E-479C-945D-9CD0D8B70C96-669-0000C76E6FE5E83F@1x</title>
    <desc>Created with sketchtool.</desc>
    <defs></defs>
    <g id="Page-1" stroke="none" stroke-width="1" fill="none" fill-rule="evenodd">
        <g id="Coach-Activity-Log-Expanded" transform="translate(-421.000000, -261.000000)">
            <g id="Card/Activity-Log/expanded" transform="translate(120.000000, 150.000000)">
                <g id="info-field">
                    <g transform="translate(30.000000, 98.000000)">
                        <g id="icon/incoming-call" transform="translate(272.000000, 13.000000)">
                            <g>
                                <path d="M9.00548335,14.9935748 C7.94507453,15.0586754 6.99356879,14.6197713 6.07417549,14.0989665 C4.88043021,13.4241603 3.90449109,12.4791516 2.98579589,11.4795423 C1.99868722,10.4050324 1.16306552,9.21852145 0.565494786,7.87730906 C0.1242977,6.88889993 -0.0809427162,5.84799032 0.0293565553,4.77208038 C0.13895773,3.70107049 0.520816601,2.73226154 1.33200491,1.98045459 C1.59588545,1.73615234 1.86186027,1.48905005 2.15017419,1.27484808 C2.72959442,0.842944086 3.2762041,0.937444959 3.72089167,1.43654957 C4.32404718,2.11485583 4.86507209,2.86736279 5.1115002,3.75777101 C5.3006844,4.44237733 5.20225277,4.94568198 4.60538013,5.36218583 C4.33382053,5.55188758 4.08529812,5.77518965 3.82211568,5.97819152 C3.33344802,6.35619501 3.25805359,7.01630111 3.5882533,7.62950677 C3.90937776,8.22591228 4.30589666,8.78661746 4.71428321,9.32912247 C5.19736609,9.97312842 5.79144635,10.5191335 6.45603436,10.9720376 C7.08152897,11.3983416 7.46967071,11.5285428 8.04071377,11.1526393 C8.30878288,10.9762377 8.53077762,10.7200353 8.75067807,10.4785331 C9.13812171,10.0536292 9.60933695,9.81842699 10.1713048,9.94722818 C10.5245417,10.0277289 10.8854576,10.1901304 11.177262,10.4050324 C11.6568544,10.7585357 12.094561,11.1722395 12.527381,11.5845433 C12.8101101,11.8533458 13.0013886,12.1774488 12.9999924,12.6023527 C12.9978981,12.9012555 12.8533921,13.1203575 12.6725851,13.2960591 C12.28933,13.6684626 11.8928111,14.038066 11.4558026,14.3432688 C10.7388573,14.8437734 9.91440519,15.0264751 9.00548335,14.9935748 Z" id="Stroke-1-Copy" stroke="#3399FF" stroke-width="2"></path>
                                <path d="M17.0734438,4.31941854 C17.0400005,4.35829979 17.0036187,4.3945808 16.9646429,4.42791692 L14.3821981,7.01036174 C13.9916738,7.40088603 13.3585088,7.40088603 12.9679845,7.01036174 C12.5774602,6.61983745 12.5774602,5.98667247 12.9679845,5.59614818 L13.8964814,4.66765127 L9,4.66765127 C8.44771525,4.66765127 8,4.21993602 8,3.66765127 C8,3.11536652 8.44771525,2.66765127 9,2.66765127 L13.9308267,2.66765127 L12.9702822,1.70710678 C12.5797579,1.31658249 12.5797579,0.683417511 12.9702822,0.292893219 C13.3608065,-0.0976310729 13.9939715,-0.0976310729 14.3844958,0.292893219 L17.0361462,2.94454365 C17.4138148,3.32221222 17.4262473,3.92680938 17.0734438,4.31941854 Z" id="Combined-Shape" fill="#3399FF" transform="translate(12.664520, 3.651627) rotate(-180.000000) translate(-12.664520, -3.651627) "></path>
                            </g>
                        </g>
                    </g>
                </g>
            </g>
        </g>
    </g>
</svg>