<svg width="224px" height="30px" viewBox="0 0 24 30" version="1.1" xmlns="http://www.w3.org/2000/svg" xmlns:xlink="http://www.w3.org/1999/xlink">
  <title>E6120FD7-12D1-41BD-B75F-B739123A38F7-669-0000C902CBAA33F2@1x</title>
  <desc>Created with sketchtool.</desc>
  <defs></defs>
  <g id="Page-1" stroke="none" stroke-width="1" fill="none" fill-rule="evenodd">
    <g id="Style-guide" transform="translate(-784.000000, -1153.000000)" stroke="#3399FF" stroke-width="2">
      <g id="icon/location/blue" transform="translate(785.000000, 1154.000000)">
        <path fill="#FF9E27" stroke="#FF9E27" d="M20.2223297,16.0368345 C19.2496108,17.4547848 18.2744347,18.8712363 17.297039,20.2863763 C15.7420284,22.5378683 14.1869385,24.7893604 12.6237237,27.0358315 C12.4661816,27.2622959 12.2821247,27.4886478 12.0603371,27.6557609 C11.2979914,28.2303149 10.1777972,28.0680729 9.61524283,27.3002148 C9.08185852,26.5721491 8.57784245,25.8248241 8.06486927,25.0835317 C6.17900023,22.3582031 4.30034444,19.6284156 2.40650912,16.9080329 C1.86234457,16.1263112 1.29677806,15.3611509 0.90096077,14.4958352 C-1.8668274,8.4452946 2.01184119,1.46813857 8.85309539,0.199128739 C14.6935703,-0.88429571 20.3376625,2.5551226 21.7158692,8.03942728 C21.9104289,8.81373011 21.9933812,9.60125959 22,10.3963204"/>
      </g>
    </g>
  </g>
</svg>
