<?xml version="1.0" encoding="UTF-8"?>
<svg width="13px" height="16px" viewBox="0 0 13 16" version="1.1" xmlns="http://www.w3.org/2000/svg" xmlns:xlink="http://www.w3.org/1999/xlink">
    <!-- Generator: sketchtool 51.2 (57519) - http://www.bohemiancoding.com/sketch -->
    <title>20EA6737-D9F1-46FF-9E14-EED3AA788395-669-0000C902C8612912@1x</title>
    <desc>Created with sketchtool.</desc>
    <defs></defs>
    <g id="Page-1" stroke="none" stroke-width="1" fill="none" fill-rule="evenodd">
        <g id="Style-guide" transform="translate(-572.000000, -1027.000000)" stroke="#A1A5A8" stroke-width="2">
            <g id="icon/location" transform="translate(573.000000, 1028.000000)">
                <path d="M10.1111649,8.01841727 C9.62480542,8.7273924 9.13721733,9.43561813 8.64851951,10.1431882 C7.87101419,11.2689342 7.09346923,12.3946802 6.31186187,13.5179157 C6.23309078,13.6311479 6.14106237,13.7443239 6.03016853,13.8278804 C5.64899572,14.1151575 5.0888986,14.0340364 4.80762141,13.6501074 C4.54092926,13.2860745 4.28892123,12.9124121 4.03243463,12.5417659 C3.08950011,11.1791016 2.15017222,9.81420782 1.20325456,8.45401647 C0.931172284,8.0631556 0.64838903,7.68057544 0.450480385,7.24791758 C-0.933413698,4.2226473 1.0059206,0.734069285 4.42654769,0.0995643694 C7.34678516,-0.442147855 10.1688313,1.2775613 10.8579346,4.01971364 C10.9552144,4.40686505 10.9966906,4.8006298 11,5.1981602 C10.9906069,6.21906715 10.6994412,7.16087642 10.1111649,8.01841727 Z"></path>
            </g>
        </g>
    </g>
</svg>