<?xml version="1.0" encoding="UTF-8"?>
<svg width="14px" height="14px" viewBox="0 0 14 14" version="1.1" xmlns="http://www.w3.org/2000/svg" xmlns:xlink="http://www.w3.org/1999/xlink">
    <!-- Generator: sketchtool 51.2 (57519) - http://www.bohemiancoding.com/sketch -->
    <title>0289E71E-E55F-426A-B12D-386C4C44A2DB-669-0000C902CFEAAE44@1x</title>
    <desc>Created with sketchtool.</desc>
    <defs></defs>
    <g id="Page-1" stroke="none" stroke-width="1" fill="none" fill-rule="evenodd">
        <g id="Style-guide" transform="translate(-645.000000, -1094.000000)" fill="#A1A5A8">
            <g id="icon/logout" transform="translate(645.000000, 1094.000000)">
                <path d="M7.00265401,5.2581394 C6.28077901,5.2581394 5.69015401,4.6675144 5.69015401,3.9456394 L5.69015401,1.3206394 C5.69015401,0.598764399 6.28077901,0.00813939876 7.00265401,0.00813939876 C7.72452901,0.00813939876 8.31515401,0.598764399 8.31515401,1.3206394 L8.31515401,3.9456394 C8.31515401,4.6675144 7.72452901,5.2581394 7.00265401,5.2581394 Z M11.9697,1.91470189 C13.2307,3.18681724 13.9997,4.9536441 13.9997,6.9324902 C13.9997,10.8195093 10.8497,13.9997977 6.9997,13.9997977 C3.1497,13.9997977 -0.000300000007,10.8195093 -0.000300000007,6.9324902 C-0.000300000007,4.9536441 0.7697,3.18681724 2.0297,1.91470189 C2.2407,1.77335574 2.5197,1.63200959 2.7997,1.63200959 C3.3597,1.63200959 3.8497,2.12672112 3.8497,2.69210571 C3.8497,2.97479801 3.7097,3.25749031 3.4997,3.46950954 C2.5897,4.31758643 2.0297,5.58970178 2.0297,6.9324902 C2.0297,9.68974973 4.1997,11.880615 6.9297,11.880615 C9.6597,11.880615 11.8297,9.68974973 11.8297,6.9324902 C11.8297,5.58970178 11.3397,4.38825951 10.4297,3.46950954 C10.2897,3.25749031 10.1507,2.97479801 10.1507,2.69210571 C10.1507,2.12672112 10.6397,1.63200959 11.1997,1.63200959 C11.5497,1.63200959 11.7597,1.70268267 11.9697,1.91470189 Z"></path>
            </g>
        </g>
    </g>
</svg>