<?xml version="1.0" encoding="UTF-8"?>
<svg width="136px" height="136px" viewBox="0 0 136 136" version="1.1" xmlns="http://www.w3.org/2000/svg" xmlns:xlink="http://www.w3.org/1999/xlink">
    <!-- Generator: sketchtool 51.2 (57519) - http://www.bohemiancoding.com/sketch -->
    <title>72642074-F6BC-4143-87D3-22D434913A1B-669-0000C902D84F21BE@1x</title>
    <desc>Created with sketchtool.</desc>
    <defs>
        <circle id="path-1" cx="60" cy="60" r="60"></circle>
        <filter x="-10.8%" y="-9.2%" width="121.7%" height="121.7%" filterUnits="objectBoundingBox" id="filter-3">
            <feOffset dx="0" dy="2" in="SourceAlpha" result="shadowOffsetOuter1"></feOffset>
            <feGaussianBlur stdDeviation="4" in="shadowOffsetOuter1" result="shadowBlurOuter1"></feGaussianBlur>
            <feColorMatrix values="0 0 0 0 0.166241367   0 0 0 0 0.190848149   0 0 0 0 0.215454932  0 0 0 0.195737092 0" type="matrix" in="shadowBlurOuter1"></feColorMatrix>
        </filter>
    </defs>
    <g id="Page-1" stroke="none" stroke-width="1" fill="none" fill-rule="evenodd">
        <g id="Style-guide" transform="translate(-356.000000, -2236.000000)">
            <g id="Logo/go/circle" transform="translate(364.000000, 2242.000000)">
                <g>
                    <g id="Group-3">
                        <mask id="mask-2" fill="white">
                            <use xlink:href="#path-1"></use>
                        </mask>
                        <g id="Mask">
                            <use fill="black" fill-opacity="1" filter="url(#filter-3)" xlink:href="#path-1"></use>
                            <use fill="#3399FF" fill-rule="evenodd" xlink:href="#path-1"></use>
                        </g>
                        <g opacity="0.200000003" mask="url(#mask-2)" fill="#FFFFFF">
                            <g transform="translate(-26.000000, 32.000000)">
                                <rect id="Rectangle-2" x="61" y="0" width="90" height="14" rx="7"></rect>
                                <rect id="Rectangle-2-Copy-2" x="90" y="42" width="61" height="14" rx="7"></rect>
                                <rect id="Rectangle-2-Copy" x="0" y="22" width="151" height="14" rx="7"></rect>
                            </g>
                        </g>
                    </g>
                    <path d="M54.0841121,58.6749654 C54.9750823,58.6749654 55.683798,58.922312 56.2102804,59.4170124 C56.7367628,59.9117129 57,60.573532 57,61.4024896 L57,68.3817427 C57,69.7187711 56.8987549,70.7415824 56.6962617,71.4502075 C56.4937685,72.1588325 56.1292861,72.7136909 55.6028037,73.1147994 C55.0763214,73.515908 54.2866096,73.8635301 53.2336449,74.1576763 C52.1806801,74.425082 51.0129867,74.6323183 49.7305296,74.7793914 C48.4480725,74.9264645 47.2533804,75 46.1464174,75 C43.0415213,75 40.3484019,74.4184014 38.0669782,73.2551867 C35.7855545,72.0919721 34.0373893,70.4207117 32.8224299,68.2413555 C31.6074706,66.0619992 31,63.4748882 31,60.4799447 C31,57.5384823 31.6074706,54.9781114 32.8224299,52.7987552 C34.0373893,50.619399 35.7653055,48.9414536 38.0062305,47.7648686 C40.2471555,46.5882837 42.8660286,46 45.8629283,46 C47.7528651,46 49.447033,46.2206064 50.9454829,46.6618257 C52.4439327,47.1030451 53.841115,47.7782343 55.1370717,48.6874136 C55.5960563,49.0083004 55.9267903,49.3559225 56.1292835,49.7302905 C56.3317767,50.1046584 56.4330218,50.5859814 56.4330218,51.1742739 C56.4330218,52.0032314 56.2035329,52.7051608 55.7445483,53.280083 C55.2855636,53.8550052 54.7320905,54.142462 54.0841121,54.142462 C53.6521266,54.142462 53.2808946,54.0822966 52.970405,53.961964 C52.6599154,53.8416315 52.2616847,53.6343952 51.7757009,53.340249 C50.7767344,52.8054376 49.8385298,52.4177052 48.9610592,52.1770401 C48.0835886,51.936375 47.1318847,51.8160443 46.105919,51.8160443 C43.5410048,51.8160443 41.6308474,52.5246587 40.3753894,53.9419087 C39.1199314,55.3591588 38.4922118,57.5384823 38.4922118,60.4799447 C38.4922118,63.5016288 39.1469301,65.7411177 40.4563863,67.1984786 C41.7658425,68.6558395 43.7704953,69.384509 46.470405,69.384509 C47.7663616,69.384509 49.0487995,69.2508082 50.317757,68.9834025 L50.317757,63.7289073 L47.4018692,63.7289073 C46.510899,63.7289073 45.8224323,63.508301 45.3364486,63.0670816 C44.8504649,62.6258622 44.6074766,62.0041534 44.6074766,61.2019364 C44.6074766,60.3997194 44.8504649,59.7780105 45.3364486,59.3367911 C45.8224323,58.8955718 46.510899,58.6749654 47.4018692,58.6749654 L54.0841121,58.6749654 Z M75.5205674,75 C72.5588504,75 69.9879542,74.4050313 67.8078014,73.2150761 C65.6276487,72.0251208 63.9479964,70.3404904 62.7687943,68.1611342 C61.5895922,65.9817779 61,63.4214071 61,60.4799447 C61,57.5384823 61.5895922,54.9781114 62.7687943,52.7987552 C63.9479964,50.619399 65.6276487,48.9414536 67.8078014,47.7648686 C69.9879542,46.5882837 72.5588504,46 75.5205674,46 C78.4822843,46 81.0531806,46.5882837 83.2333333,47.7648686 C85.4134861,48.9414536 87.0862826,50.619399 88.251773,52.7987552 C89.4172635,54.9781114 90,57.5384823 90,60.4799447 C90,63.4214071 89.4104078,65.9817779 88.2312057,68.1611342 C87.0520036,70.3404904 85.3723513,72.0251208 83.1921986,73.2150761 C81.0120458,74.4050313 78.454861,75 75.5205674,75 Z M76,70 C78.1960894,70 79.9117585,69.2313002 81.1470588,67.6938776 C82.3823591,66.1564549 83,63.918382 83,60.9795918 C83,58.0408016 82.3754964,55.8095314 81.1264706,54.2857143 C79.8774447,52.7618971 78.1686383,52 76,52 C73.8039106,52 72.0882415,52.7550945 70.8529412,54.2653061 C69.6176409,55.7755178 69,58.0135906 69,60.9795918 C69,63.9455931 69.6176409,66.1904686 70.8529412,67.7142857 C72.0882415,69.2381029 73.8039106,70 76,70 Z" id="GO" fill="#FFFFFF"></path>
                </g>
            </g>
        </g>
    </g>
</svg>