<?xml version="1.0" encoding="UTF-8"?>
<svg width="19px" height="18px" viewBox="0 0 19 18" version="1.1" xmlns="http://www.w3.org/2000/svg" xmlns:xlink="http://www.w3.org/1999/xlink">
    <!-- Generator: sketchtool 51.2 (57519) - http://www.bohemiancoding.com/sketch -->
    <title>6AF7E6B3-1DBD-4B7E-9996-C0344829C0AF-669-0000C76E6FDF728B@1x</title>
    <desc>Created with sketchtool.</desc>
    <defs></defs>
    <g id="Page-1" stroke="none" stroke-width="1" fill="none" fill-rule="evenodd">
        <g id="Coach-Activity-Log-Expanded" transform="translate(-421.000000, -378.000000)">
            <g id="Card/Activity-Log/expanded" transform="translate(120.000000, 150.000000)">
                <g id="info-field">
                    <g transform="translate(30.000000, 218.000000)">
                        <g id="icon/missed-call" transform="translate(271.000000, 4.000000)">
                            <g>
                                <path d="M12.0514249,27.5395163 C10.9910161,27.6046169 10.0395103,27.1657129 9.12011704,26.6449081 C7.92637176,25.9701018 6.95043263,25.0250931 6.03173744,24.0254839 C5.04462877,22.950974 4.20900707,21.764463 3.61143633,20.4232506 C3.17023925,19.4348415 2.96499883,18.3939319 3.0752981,17.3180219 C3.18489928,16.247012 3.56675815,15.2782031 4.37794646,14.5263961 C4.641827,14.2820939 4.90780182,14.0349916 5.19611574,13.8207896 C5.77553596,13.3888856 6.32214564,13.4833865 6.76683321,13.9824911 C7.36998872,14.6607974 7.91101363,15.4133043 8.15744175,16.3037126 C8.34662594,16.9883189 8.24819432,17.4916235 7.65132168,17.9081274 C7.37976208,18.0978291 7.13123967,18.3211312 6.86805723,18.5241331 C6.37938957,18.9021366 6.30399513,19.5622427 6.63419485,20.1754483 C6.95531931,20.7718538 7.35183821,21.332559 7.76022475,21.875064 C8.24330764,22.51907 8.83738789,23.065075 9.50197591,23.5179792 C10.1274705,23.9442831 10.5156123,24.0744843 11.0866553,23.6985809 C11.3547244,23.5221792 11.5767192,23.2659769 11.7966196,23.0244746 C12.1840633,22.5995707 12.6552785,22.3643685 13.2172463,22.4931697 C13.5704832,22.5736705 13.9313992,22.736072 14.2232036,22.950974 C14.702796,23.3044772 15.1405026,23.718181 15.5733225,24.1304849 C15.8560517,24.3992873 16.0473301,24.7233903 16.045934,25.1482943 C16.0438397,25.447197 15.8993337,25.666299 15.7185266,25.8420007 C15.3352716,26.2144041 14.9387527,26.5840075 14.5017442,26.8892103 C13.7847989,27.389715 12.9603467,27.5724166 12.0514249,27.5395163 Z" id="Stroke-1-Copy-5" stroke="#FF9E27" stroke-width="2" transform="translate(9.545942, 20.545942) rotate(-230.000000) translate(-9.545942, -20.545942) "></path>
                                <path d="M4.32533211,5.99053527 C4.32533211,5.43825052 4.77304736,4.99053527 5.32533211,4.99053527 L10.2055485,4.99053527 L9.26257009,4.0475569 C8.8720458,3.65703261 8.8720458,3.02386763 9.26257009,2.63334334 C9.65309438,2.24281905 10.2862594,2.24281905 10.6767837,2.63334334 L13.2166425,5.17320217 C13.4294146,5.32350416 13.5808986,5.55479446 13.626227,5.82220545 C13.6887465,6.13845995 13.5974691,6.47909151 13.3523947,6.72416589 L10.7007443,9.37581632 C10.31022,9.76634061 9.67705502,9.76634061 9.28653073,9.37581632 C8.89600644,8.98529202 8.89600644,8.35212705 9.28653073,7.96160275 L10.2575982,6.99053527 L6.32533211,6.99053527 L6.32533211,13.305537 C6.32533211,13.8578218 5.87761686,14.305537 5.32533211,14.305537 C4.77304736,14.305537 4.32533211,13.8578218 4.32533211,13.305537 L4.32533211,5.99053527 Z" id="Combined-Shape-Copy-2" fill="#FF9E27" transform="translate(8.989852, 8.148036) rotate(-135.000000) translate(-8.989852, -8.148036) "></path>
                            </g>
                        </g>
                    </g>
                </g>
            </g>
        </g>
    </g>
</svg>