<?xml version="1.0" encoding="UTF-8"?>
<svg width="14px" height="15px" viewBox="0 0 15 16" version="1.1" xmlns="http://www.w3.org/2000/svg" xmlns:xlink="http://www.w3.org/1999/xlink">
    <!-- Generator: sketchtool 51.2 (57519) - http://www.bohemiancoding.com/sketch -->
    <title>4EC6B5B5-AF44-4122-BFB9-2A6E575E0F00@1x</title>
    <desc>Created with sketchtool.</desc>
    <defs></defs>
    <g id="Page-1" stroke="none" stroke-width="1" fill="none" fill-rule="evenodd" stroke-linejoin="round">
        <g id="Style-guide" transform="translate(-425.000000, -1093.000000)" stroke="#A1A5A8" stroke-width="2">
            <path d="M432.496235,1106.21063 L427.003302,1106.21063 C426.637797,1106.21063 426.339691,1106.08077 426.143978,1105.77062 C425.898364,1105.38104 425.970298,1104.90573 426.334507,1104.61701 C426.644278,1104.37179 426.963122,1104.13288 427.299464,1103.92359 C427.536005,1103.77671 427.613124,1103.60903 427.608587,1103.33733 C427.59109,1102.30161 427.585257,1101.26526 427.606643,1100.23017 C427.637102,1098.75443 428.261829,1097.54788 429.428332,1096.60797 C429.824295,1096.28837 430.268214,1096.04378 430.751017,1095.86916 C430.852114,1095.8326 430.886461,1095.78154 430.880628,1095.67879 C430.861835,1095.30623 430.954507,1094.96393 431.182623,1094.65819 C431.916224,1093.67605 433.449527,1093.81789 433.97575,1094.91791 C434.096288,1095.16944 434.140356,1095.43672 434.126099,1095.71157 C434.121562,1095.79415 434.151373,1095.83323 434.228492,1095.8616 C435.029491,1096.14968 435.700878,1096.62058 436.251727,1097.25034 C436.667779,1097.72565 436.97431,1098.26462 437.169376,1098.85971 C437.329446,1099.34826 437.405917,1099.8513 437.405917,1100.36507 C437.405917,1101.43798 437.407213,1102.5109 437.40462,1103.58381 C437.40462,1103.67018 437.429895,1103.72376 437.503125,1103.77545 C437.87187,1104.03202 438.238022,1104.29363 438.60223,1104.55713 C438.89256,1104.76705 439.035781,1105.05072 438.992361,1105.40184 C438.944405,1105.7889 438.713048,1106.04484 438.337175,1106.16587 C438.219228,1106.20369 438.086377,1106.20811 437.960654,1106.20874 C436.138965,1106.21063 434.317924,1106.21 432.496235,1106.21 L432.496235,1106.21063 Z M432.510751,1106.21189 C432.945598,1106.21189 433.381092,1106.21063 433.815939,1106.21252 C434.051832,1106.21315 434.216438,1106.32599 434.261154,1106.53906 C434.2793,1106.62353 434.26245,1106.72502 434.231991,1106.80886 C433.943606,1107.60252 433.123165,1108.10304 432.269026,1107.98201 C431.503022,1107.87295 430.993001,1107.4424 430.748036,1106.72565 C430.661196,1106.47287 430.878943,1106.21567 431.17705,1106.21252 C431.532833,1106.20874 431.888616,1106.21189 432.243752,1106.21189 L432.510751,1106.21189 Z" id="icon/notification/grey"></path>
        </g>
    </g>
</svg>