<?xml version="1.0" encoding="UTF-8"?>
<svg width="14px" height="16px" viewBox="0 0 14 16" version="1.1" xmlns="http://www.w3.org/2000/svg" xmlns:xlink="http://www.w3.org/1999/xlink">
    <!-- Generator: sketchtool 51.2 (57519) - http://www.bohemiancoding.com/sketch -->
    <title>490822B4-16F6-4F6E-9000-1976C68E59CF-669-0000C902C8E02221@1x</title>
    <desc>Created with sketchtool.</desc>
    <defs></defs>
    <g id="Page-1" stroke="none" stroke-width="1" fill="none" fill-rule="evenodd">
        <g id="Style-guide" transform="translate(-718.000000, -1027.000000)" stroke="#A1A5A8" stroke-width="2">
            <g id="icon/password" transform="translate(719.000000, 1028.000000)">
                <g>
                    <path d="M9.90022148,5.38461538 L1.91927046,5.38461538 C0.863681903,5.38461538 0,6.24829729 0,7.30388584 L0,11.9961156 C0,13.0517042 0.863681903,13.9153861 1.91927046,13.9153861 L9.90022148,13.9153861 C10.95581,13.9153861 11.8196959,13.0517042 11.8196959,11.9961156 L11.8196959,7.30388584 C11.8196959,6.24829729 10.95581,5.38461538 9.90022148,5.38461538 Z" id="Stroke-1"></path>
                    <path d="M9.30174693,3.48605905 C9.30174693,1.62899001 7.78219702,0.109440103 5.92512798,0.109440103 C4.067855,0.109440103 2.54850903,1.62899001 2.54850903,3.48605905 L2.54850903,5.43490068 L9.30174693,5.43490068 L9.30174693,3.48605905 Z" id="Stroke-3"></path>
                </g>
            </g>
        </g>
    </g>
</svg>