<?xml version="1.0" encoding="UTF-8"?>
<svg width="15px" height="16px" viewBox="0 0 15 16" version="1.1" xmlns="http://www.w3.org/2000/svg" xmlns:xlink="http://www.w3.org/1999/xlink">
    <!-- Generator: sketchtool 51.2 (57519) - http://www.bohemiancoding.com/sketch -->
    <title>2B7F191F-0E61-4445-BF98-8FF1CF0603F1-669-0000C902C79DB2BD@1x</title>
    <desc>Created with sketchtool.</desc>
    <defs></defs>
    <g id="Page-1" stroke="none" stroke-width="1" fill="none" fill-rule="evenodd">
        <g id="Style-guide" transform="translate(-200.000000, -1027.000000)" stroke="#A1A5A8" stroke-width="2">
            <g id="icon/phone" transform="translate(201.000000, 1028.000000)">
                <path d="M5.09462385,8.14554907 C5.39163397,8.47648505 6.73823413,9.94727982 7.32588604,10.0781335 L8.68589692,8.50889012 C8.68589692,8.50889012 9.22060205,7.91874732 9.79017926,8.52230246 L12.010368,11.0840587 C12.010368,11.0840587 12.3707127,11.8485619 11.9522478,12.3179937 L10.8712135,13.5653409 C10.8712135,13.5653409 8.96487351,14.9736363 5.90775503,12.7203638 C5.90775503,12.7203638 4.53404575,11.8894912 3.22503854,10.3899729 C1.86657654,8.85420201 1.11865682,7.20789349 1.11865682,7.20789349 C-0.845803353,3.68044901 0.37471924,1.48082584 0.37471924,1.48082584 L1.45575354,0.233478556 C1.8625944,-0.249365555 2.52516381,0.166416874 2.52516381,0.166416874 L4.75697655,2.72817313 C5.28005766,3.38537761 4.76860057,4.00234509 4.76860057,4.00234509 L3.40858968,5.57158845 C3.53223709,6.24927138 4.80674206,7.80169037 5.09462385,8.14554907 Z"></path>
            </g>
        </g>
    </g>
</svg>