<?xml version="1.0" encoding="UTF-8"?>
<svg width="14px" height="12px" viewBox="0 0 14 12" version="1.1" xmlns="http://www.w3.org/2000/svg" xmlns:xlink="http://www.w3.org/1999/xlink">
    <!-- Generator: sketchtool 51.2 (57519) - http://www.bohemiancoding.com/sketch -->
    <title>0FFCEDF5-DD6F-44DD-A6AF-EA9E6BBB0853@1x</title>
    <desc>Created with sketchtool.</desc>
    <defs></defs>
    <g id="Page-1" stroke="none" stroke-width="1" fill="none" fill-rule="evenodd">
        <g id="Style-guide" transform="translate(-1014.000000, -1095.000000)" fill="#A1A5A8">
            <path d="M1022.09708,1095 C1018.93811,1095 1016.35841,1097.53715 1016.20892,1100.7111 L1014,1100.7111 L1017.17766,1104.18794 L1020.35532,1100.7111 L1018.18967,1100.7111 C1018.33818,1098.64279 1020.02388,1096.99933 1022.09708,1096.99933 C1024.26765,1096.99933 1026.03302,1098.79374 1026.03302,1101 C1026.03302,1103.20526 1024.26765,1105.00067 1022.09708,1105.00067 C1021.5542,1105.00067 1021.11359,1105.44852 1021.11359,1106.00033 C1021.11359,1106.55215 1021.5542,1107 1022.09708,1107 C1025.35244,1107 1028,1104.3089 1028,1101 C1028,1097.6911 1025.35244,1095 1022.09708,1095" id="icon/refresh/grey"></path>
        </g>
    </g>
</svg>