<?xml version="1.0" encoding="UTF-8"?>
<svg width="19px" height="18px" viewBox="0 0 19 18" version="1.1" xmlns="http://www.w3.org/2000/svg" xmlns:xlink="http://www.w3.org/1999/xlink">
    <!-- Generator: sketchtool 51.2 (57519) - http://www.bohemiancoding.com/sketch -->
    <title>43375E3D-8177-47E4-8159-90E62A202039-669-0000C76E6FDDF2D3@1x</title>
    <desc>Created with sketchtool.</desc>
    <defs></defs>
    <g id="Page-1" stroke="none" stroke-width="1" fill="none" fill-rule="evenodd">
        <g id="Coach-Activity-Log-Expanded" transform="translate(-420.000000, -439.000000)" stroke="#FF9E27">
            <g id="Card/Activity-Log/expanded" transform="translate(120.000000, 150.000000)">
                <g id="info-field">
                    <g transform="translate(30.000000, 278.000000)">
                        <g id="icon/rejected-call" transform="translate(271.000000, 9.000000)">
                            <g>
                                <path d="M9.00548335,18.9935748 C7.94507453,19.0586754 6.99356879,18.6197713 6.07417549,18.0989665 C4.88043021,17.4241603 3.90449109,16.4791516 2.98579589,15.4795423 C1.99868722,14.4050324 1.16306552,13.2185215 0.565494786,11.8773091 C0.1242977,10.8888999 -0.0809427162,9.84799032 0.0293565553,8.77208038 C0.13895773,7.70107049 0.520816601,6.73226154 1.33200491,5.98045459 C1.59588545,5.73615234 1.86186027,5.48905005 2.15017419,5.27484808 C2.72959442,4.84294409 3.2762041,4.93744496 3.72089167,5.43654957 C4.32404718,6.11485583 4.86507209,6.86736279 5.1115002,7.75777101 C5.3006844,8.44237733 5.20225277,8.94568198 4.60538013,9.36218583 C4.33382053,9.55188758 4.08529812,9.77518965 3.82211568,9.97819152 C3.33344802,10.356195 3.25805359,11.0163011 3.5882533,11.6295068 C3.90937776,12.2259123 4.30589666,12.7866175 4.71428321,13.3291225 C5.19736609,13.9731284 5.79144635,14.5191335 6.45603436,14.9720376 C7.08152897,15.3983416 7.46967071,15.5285428 8.04071377,15.1526393 C8.30878288,14.9762377 8.53077762,14.7200353 8.75067807,14.4785331 C9.13812171,14.0536292 9.60933695,13.818427 10.1713048,13.9472282 C10.5245417,14.0277289 10.8854576,14.1901304 11.177262,14.4050324 C11.6568544,14.7585357 12.094561,15.1722395 12.527381,15.5845433 C12.8101101,15.8533458 13.0013886,16.1774488 12.9999924,16.6023527 C12.9978981,16.9012555 12.8533921,17.1203575 12.6725851,17.2960591 C12.28933,17.6684626 11.8928111,18.038066 11.4558026,18.3432688 C10.7388573,18.8437734 9.91440519,19.0264751 9.00548335,18.9935748 Z" id="Stroke-1-Copy-7" stroke-width="2"></path>
                                <path d="M13.3939085,5.39390847 L13.3939085,2.36345084 C13.3939085,2.02871573 13.6652649,1.75735931 14,1.75735931 C14.3347351,1.75735931 14.6060915,2.02871573 14.6060915,2.36345084 L14.6060915,5.39390847 L17.6365492,5.39390847 C17.9712843,5.39390847 18.2426407,5.66526489 18.2426407,6 C18.2426407,6.33473511 17.9712843,6.60609153 17.6365492,6.60609153 L14.6060915,6.60609153 L14.6060915,9.63654916 C14.6060915,9.97128427 14.3347351,10.2426407 14,10.2426407 C13.6652649,10.2426407 13.3939085,9.97128427 13.3939085,9.63654916 L13.3939085,6.60609153 L10.3634508,6.60609153 C10.0287157,6.60609153 9.75735931,6.33473511 9.75735931,6 C9.75735931,5.66526489 10.0287157,5.39390847 10.3634508,5.39390847 L13.3939085,5.39390847 Z" id="Combined-Shape" fill="#FF9E27" transform="translate(14.000000, 6.000000) rotate(-315.000000) translate(-14.000000, -6.000000) "></path>
                            </g>
                        </g>
                    </g>
                </g>
            </g>
        </g>
    </g>
</svg>