<?xml version="1.0" encoding="UTF-8"?>
<svg width="30px" height="30px" viewBox="0 0 30 30" version="1.1" xmlns="http://www.w3.org/2000/svg" xmlns:xlink="http://www.w3.org/1999/xlink">
    <!-- Generator: sketchtool 51.2 (57519) - http://www.bohemiancoding.com/sketch -->
    <title>8540D862-E453-42EE-B06C-93D9B7551C44-669-0000C902CEC83A69@1x</title>
    <desc>Created with sketchtool.</desc>
    <defs></defs>
    <g id="Page-1" stroke="none" stroke-width="1" fill="none" fill-rule="evenodd">
        <g id="Style-guide" transform="translate(-1154.000000, -1153.000000)">
            <g id="icon/save" transform="translate(1155.000000, 1154.000000)">
                <g>
                    <path d="M28.000003,14.0230076 C27.988003,21.7420076 21.719003,28.0160076 13.970003,28.0000076 C6.25500299,27.9850076 -0.00499700688,21.7220076 2.99312294e-06,13.9910076 C0.00200299312,6.26800764 6.27400299,-0.00799236031 14.016003,7.63969483e-06 C21.733003,0.00900763969 28.012003,6.27300764 28.000003,14.0230076 Z" id="Fill-1" stroke="#A1A5A8" stroke-width="2"></path>
                    <path d="M19.8982196,12.3494389 C18.9642196,13.2294389 18.0292196,14.1104389 17.0942196,14.9924389 C15.7062196,16.3004389 14.3112196,17.6024389 12.9342196,18.9224389 C12.3482196,19.4844389 11.4842196,19.4654389 10.9262196,18.8844389 C9.76321956,17.6714389 8.57721956,16.4804389 7.40221956,15.2804389 C6.67621956,14.5384389 6.97321956,13.3434389 7.97021956,13.0484389 C8.48421956,12.8954389 8.94421956,13.0394389 9.31921956,13.4244389 C10.1512196,14.2794389 10.9812196,15.1364389 11.8122196,15.9934389 C11.9572196,16.1434389 11.9582196,16.1444389 12.1102196,16.0014389 C14.0982196,14.1274389 16.0852196,12.2514389 18.0742196,10.3784389 C18.7362196,9.75743893 19.7702196,9.92143893 20.1872196,10.7184389 C20.2832196,10.9024389 20.3192196,11.1184389 20.3822196,11.3194389 C20.3692196,11.3234389 20.3562196,11.3274389 20.3432196,11.3314389 C20.3512196,11.7394389 20.1922196,12.0734389 19.8982196,12.3494389 Z" id="Fill-6" stroke="#FFFFFF" stroke-width="0.5" fill="#FF9E27"></path>
                </g>
            </g>
        </g>
    </g>
</svg>