<?xml version="1.0" encoding="UTF-8"?>
<svg width="15px" height="16px" viewBox="0 0 15 16" version="1.1" xmlns="http://www.w3.org/2000/svg" xmlns:xlink="http://www.w3.org/1999/xlink">
    <!-- Generator: sketchtool 51.2 (57519) - http://www.bohemiancoding.com/sketch -->
    <title>E0664BA0-4AEC-4AF5-A699-9D52714C6B51@1x</title>
    <desc>Created with sketchtool.</desc>
    <defs></defs>
    <g id="Page-1" stroke="none" stroke-width="1" fill="none" fill-rule="evenodd">
        <g id="Style-guide" transform="translate(-199.000000, -1160.000000)" fill="#A1A5A8" fill-rule="nonzero" stroke="#979797" stroke-width="1.3">
            <path d="M208.405308,1170.92405 C207.527141,1171.56847 206.460796,1171.95512 205.331725,1171.95512 C202.383595,1171.95512 200,1169.50633 200,1166.47756 C200,1163.44879 202.383595,1161 205.331725,1161 C208.279855,1161 210.66345,1163.44879 210.66345,1166.47756 C210.66345,1167.95972 210.036188,1169.37745 209.095296,1170.34407 L212.858866,1174.21059 C213.047045,1174.40391 213.047045,1174.66168 212.858866,1174.85501 C212.670688,1175.04833 212.419783,1175.04833 212.231604,1174.85501 L208.405308,1170.92405 Z M205.331725,1171.3107 C207.903498,1171.3107 210.036188,1169.11968 210.036188,1166.47756 C210.036188,1163.83544 207.903498,1161.64442 205.331725,1161.64442 C202.759952,1161.64442 200.627262,1163.83544 200.627262,1166.47756 C200.627262,1169.11968 202.759952,1171.3107 205.331725,1171.3107 Z" id="icon/search/grey"></path>
        </g>
    </g>
</svg>