<?xml version="1.0" encoding="UTF-8"?>
<svg width="21px" height="22px" viewBox="0 0 16 16" version="1.1" xmlns="http://www.w3.org/2000/svg" xmlns:xlink="http://www.w3.org/1999/xlink">
    <!-- Generator: sketchtool 51.2 (57519) - http://www.bohemiancoding.com/sketch -->
    <title>10BF1C44-6224-4152-9397-BDD904E0FCDB-669-0000C902CF303231@1,5x</title>
    <desc>Created with sketchtool.</desc>
    <defs></defs>
    <g id="Page-1" stroke="none" stroke-width="1" fill="none" fill-rule="evenodd" stroke-linejoin="round">
        <g id="Style-guide" transform="translate(-938.000000, -1093.000000)" stroke="#A1A5A8" stroke-width="2">
            <g id="icon/set" transform="translate(939.000000, 1094.000000)">
                <path d="M9.98235631,7.02759956 C9.98793364,4.28175493 6.43094191,3.04130832 4.70745859,5.10798384 C2.90501356,7.23948713 4.8862191,10.5375375 7.60165026,9.97725299 C8.97199216,9.66416039 9.97948741,8.41579614 9.98235631,7.02759956 M3.49376509,12.973727 C3.55931837,12.5936111 3.77564838,12.0647684 3.63380661,11.6627698 C3.54496805,11.3685289 2.94379688,10.8077498 2.65351595,10.679552 C2.2505873,10.5218194 1.78090626,10.832158 1.39314225,10.9136514 C0.926524287,10.9678989 0.785591928,10.7734288 0.599573616,10.3518127 C0.430713498,10.0320203 -0.0110147905,9.40750888 0.13276854,8.99403562 C0.313106263,8.57805338 0.966630411,8.46312009 1.25310072,8.15127746 C1.5258257,7.81798804 1.42602783,7.19833957 1.39314225,6.79350041 C1.3277725,6.27980844 0.940874613,6.16108768 0.506212601,5.90392235 C0.140621883,5.69064674 -0.0981918549,5.52320325 0.0394075243,5.06116419 C0.127486894,4.68617282 0.313012775,3.86405846 0.646254124,3.60974735 C0.962002781,3.42237423 1.49483461,3.64097192 1.81326682,3.70338714 C2.43017673,3.80402008 2.62678088,3.49471019 3.02696001,3.09472847 C3.45255568,2.60928434 3.37954197,2.34093521 3.21368205,1.78377132 C3.1208154,1.36680779 2.98591299,1.02616946 3.35372357,0.753733567 C3.66612781,0.532021785 4.35171816,0.190308003 4.70745829,0.145074893 C5.20343574,0.102074026 5.41308139,0.610342882 5.64106844,0.941013159 C5.98218635,1.45181541 6.19991866,1.43582388 6.76140063,1.40921214 C7.33747418,1.4024848 7.59980002,1.4151097 7.88173281,0.894193261 C8.07532403,0.594538386 8.25650274,0.0650410055 8.62862093,0.00461519854 C9.04305956,-0.0450293613 9.81554651,0.317772668 10.1690777,0.519634077 C10.5573696,0.737106164 10.4659856,1.06437146 10.4024802,1.45603204 C10.2804597,2.02662213 10.1786518,2.33724126 10.6358828,2.76698918 C10.9580101,3.05704722 11.2357614,3.48376862 11.7095344,3.42246776 C12.1264165,3.38183429 12.7375908,2.97503217 13.1099497,3.23518816 C13.4310341,3.47853163 13.6107638,4.15312176 13.7634768,4.49932541 C13.9887336,5.03990363 13.792036,5.22894972 13.3433522,5.52936317 C12.9259681,5.81928038 12.5942745,5.95633061 12.5964641,6.46576113 C12.5569263,6.88458759 12.4907372,7.51442949 12.8298666,7.82353817 C13.1309393,8.07782705 13.6439518,8.13833302 13.9035183,8.47901674 C14.1850573,8.84326966 13.7758626,9.50037198 13.6234353,9.88361368 C13.4809097,10.2816658 13.3626948,10.5685782 12.8765471,10.5390923 C12.391547,10.4734707 11.8467955,10.1498994 11.4294514,10.4922724 C11.0977739,10.7595414 10.5475066,11.2709899 10.5892023,11.7095897 C10.6236054,12.1411724 11.0368201,12.7136411 10.7759243,13.1141866 C10.5898565,13.4561719 9.67559577,13.7865233 9.32882855,13.863305 C8.75058401,14.0329893 8.52471829,13.4179699 8.25517687,13.0205469 C7.87764477,12.4985971 7.35757399,12.588982 6.76140063,12.6459877 C6.18855994,12.673148 6.05585448,13.1491064 5.78110997,13.5823856 C5.45580516,14.1424518 5.17786692,14.0513655 4.61409727,13.8164851 C4.1559554,13.6713562 3.47017807,13.5796153 3.49376509,12.973727"></path>
            </g>
        </g>
    </g>
</svg>