<?xml version="1.0" encoding="UTF-8"?>
<svg width="28px" height="30px" viewBox="0 0 28 30" version="1.1" xmlns="http://www.w3.org/2000/svg" xmlns:xlink="http://www.w3.org/1999/xlink">
    <!-- Generator: sketchtool 51.2 (57519) - http://www.bohemiancoding.com/sketch -->
    <title>2E85DACC-E673-40C3-AB7D-26E3047532F5@1x</title>
    <desc>Created with sketchtool.</desc>
    <defs></defs>
    <g id="Page-1" stroke="none" stroke-width="1" fill="none" fill-rule="evenodd">
        <g id="Style-guide" transform="translate(-763.000000, -1989.000000)" stroke="#A1A5A8">
            <g id="Group-8" transform="translate(751.000000, 1848.000000)">
                <g id="icon/set/pushed" transform="translate(13.000000, 142.000000)">
                    <path d="M22.2779625,0.931225702 C22.2779625,0.498316106 22.4781415,0.203175928 22.8707792,0.0530856668 C23.320217,-0.118286049 23.8104626,0.170693707 23.9444668,0.584001964 C23.9803115,0.694329506 23.9985096,0.815297777 23.9985096,0.931225702 C24.0007154,7.58560064 24.0007154,15.3466099 23.9968552,22.0009848 C23.9968552,22.1622759 22.2785139,22.1723566 22.2785139,22.0967514 C22.2779625,21.3771022 22.2779625,19.5502586 22.2779625,18.8306094 C22.2779625,16.1889088 22.2779625,13.5472082 22.2779625,10.9055076 C22.2779625,7.58112033 22.2779625,4.25617302 22.2779625,0.931225702 Z M11.9443676,5.99989091 C11.9443676,5.88788325 13.6654661,5.86940199 13.6654661,5.942767 C13.6660176,6.36167564 13.6649147,7.83599376 13.6654661,8.2549024 C13.6654661,13.9930547 13.6660176,19.731207 13.6660176,25.4693593 C13.6660176,26.0159567 13.6665691,26.561994 13.6649147,27.1085914 C13.6638118,27.5095788 13.4333026,27.8724836 12.9838648,27.9777708 C12.4461938,28.1037794 11.9553967,27.6753501 11.9471249,27.1657153 C11.9360957,26.5104705 11.9421618,25.8541056 11.9421618,25.1983008 C11.9421618,22.4977961 11.9421618,19.7972915 11.9421618,17.0967869 C11.9432647,13.749438 11.9427132,9.34667971 11.9443676,5.99989091 Z M0.742723586,14.0748203 C0.755407107,14.1677866 0.769744999,14.3352381 0.803383901,14.4993293 C0.89713166,14.9552005 1.14142729,15.3013041 1.5439912,15.5342801 C1.98901732,15.7918977 2.47264547,15.7353338 2.94138426,15.6877306 C3.36380064,15.6446076 3.71011589,15.4060313 3.92683865,15.0268854 C4.28252868,14.4035628 4.29080054,13.7499981 3.99907957,13.1042739 C3.79338596,12.6484028 3.41232889,12.3986257 2.93090657,12.2989389 C2.46933672,12.2037324 2.01659019,12.228374 1.59362236,12.4417486 C0.966063836,12.7592903 0.762576053,13.3299694 0.742723586,14.0748203 Z M1.60630588,17.0889804 C1.60630588,17.0275817 0.000542217885,15.7080045 1.46265875e-07,13.9989765 C-0.000560387702,12.2317408 1.61016609,11.3496526 1.61016609,11.3075158 C1.60906317,10.5100213 1.61016609,8.89446612 1.61016609,8.09753164 C1.61016609,5.71960907 1.61457775,3.3416865 1.60630588,0.964323965 C1.60465151,0.542055096 1.81034512,0.161789099 2.26088583,0.0307401391 C2.6612439,-0.0857478247 3.12171084,0.135467299 3.27281017,0.581817814 C3.32244133,0.727427769 3.33071319,0.893759141 3.33071319,1.0511299 C3.33347048,4.18062385 3.33347048,7.90900254 3.32961028,11.0379365 C3.32932984,11.1091377 4.92281346,12.2281857 4.92372699,13.9989765 C4.92460981,15.7102567 3.33291902,16.8382797 3.33291902,16.8770876 C3.33291902,17.8969173 3.33236757,19.555355 3.33236757,20.5757447 C3.33236757,22.7486933 3.33291902,24.9210818 3.33181611,27.0940304 C3.33181611,27.659109 2.86252586,28.083058 2.31934031,27.9833712 C1.92339389,27.9111262 1.61623212,27.5829438 1.61237192,27.1393935 C1.60520297,26.3329383 1.60961463,25.5270432 1.60961463,24.7205881 C1.60906317,23.9236536 1.60906317,23.1267191 1.60906317,22.3292246 C1.61016609,20.7353556 1.60299714,18.6834094 1.60630588,17.0889804 Z" id="Combined-Shape" stroke-width="0.2" fill="#A1A5A8"></path>
                    <circle id="Oval" stroke-width="2" cx="23.0271864" cy="24.4636984" r="2.5"></circle>
                    <circle id="Oval-Copy" stroke-width="2" cx="12.8060345" cy="3.5104144" r="2.5"></circle>
                    <circle id="Oval-Copy-2" stroke-width="2" cx="2.5" cy="13.9206225" r="2.5"></circle>
                </g>
            </g>
        </g>
    </g>
</svg>