<?xml version="1.0" encoding="UTF-8"?>
<svg width="18px" height="3px" viewBox="0 0 18 3" version="1.1" xmlns="http://www.w3.org/2000/svg" xmlns:xlink="http://www.w3.org/1999/xlink">
    <!-- Generator: sketchtool 51.2 (57519) - http://www.bohemiancoding.com/sketch -->
    <title>985B134C-2E12-4EB5-9FB3-4622A66CAF15-669-0000C902CF82ED94@1x</title>
    <desc>Created with sketchtool.</desc>
    <defs></defs>
    <g id="Page-1" stroke="none" stroke-width="1" fill="none" fill-rule="evenodd">
        <g id="Style-guide" transform="translate(-274.000000, -1100.000000)" fill="#A1A5A8">
            <g id="icon/submenu/grey" transform="translate(274.000000, 1100.000000)">
                <path d="M1.5,3 C0.671572875,3 0,2.32842712 0,1.5 C0,0.671572875 0.671572875,0 1.5,0 C2.32842712,0 3,0.671572875 3,1.5 C3,2.32842712 2.32842712,3 1.5,3 Z M9,3 C8.17157288,3 7.5,2.32842712 7.5,1.5 C7.5,0.671572875 8.17157288,0 9,0 C9.82842712,0 10.5,0.671572875 10.5,1.5 C10.5,2.32842712 9.82842712,3 9,3 Z M16.5,3 C15.6715729,3 15,2.32842712 15,1.5 C15,0.671572875 15.6715729,0 16.5,0 C17.3284271,0 18,0.671572875 18,1.5 C18,2.32842712 17.3284271,3 16.5,3 Z"></path>
            </g>
        </g>
    </g>
</svg>