<?xml version="1.0" encoding="UTF-8"?>
<svg width="16px" height="16px" viewBox="0 0 16 16" version="1.1" xmlns="http://www.w3.org/2000/svg" xmlns:xlink="http://www.w3.org/1999/xlink">
    <!-- Generator: sketchtool 51.2 (57519) - http://www.bohemiancoding.com/sketch -->
    <title>3BD6A90D-5E09-4E2F-A874-8FDB1085C719-669-0000C902F24BA559@1x</title>
    <desc>Created with sketchtool.</desc>
    <defs></defs>
    <g id="Page-1" stroke="none" stroke-width="1" fill="none" fill-rule="evenodd">
        <g id="Style-guide" transform="translate(-289.000000, -5806.000000)" fill="#A1A5A8">
            <g id="profile" transform="translate(200.000000, 5142.000000)">
                <g id="icon/text" transform="translate(89.000000, 664.000000)">
                    <path d="M1,0 L8,0 C8.55228475,-1.01453063e-16 9,0.44771525 9,1 C9,1.55228475 8.55228475,2 8,2 L1,2 C0.44771525,2 6.76353751e-17,1.55228475 0,1 C-6.76353751e-17,0.44771525 0.44771525,1.01453063e-16 1,0 Z M1,4.66666667 L15,4.66666667 C15.5522847,4.66666667 16,5.11438192 16,5.66666667 C16,6.21895142 15.5522847,6.66666667 15,6.66666667 L1,6.66666667 C0.44771525,6.66666667 6.76353751e-17,6.21895142 0,5.66666667 C-6.76353751e-17,5.11438192 0.44771525,4.66666667 1,4.66666667 Z M1,9.33333333 L12,9.33333333 C12.5522847,9.33333333 13,9.78104858 13,10.3333333 C13,10.8856181 12.5522847,11.3333333 12,11.3333333 L1,11.3333333 C0.44771525,11.3333333 6.76353751e-17,10.8856181 0,10.3333333 C-6.76353751e-17,9.78104858 0.44771525,9.33333333 1,9.33333333 Z M1,14 L15,14 C15.5522847,14 16,14.4477153 16,15 C16,15.5522847 15.5522847,16 15,16 L1,16 C0.44771525,16 6.76353751e-17,15.5522847 0,15 C-6.76353751e-17,14.4477153 0.44771525,14 1,14 Z"></path>
                </g>
            </g>
        </g>
    </g>
</svg>