<?xml version="1.0" encoding="UTF-8"?>
<svg width="19px" height="17px" viewBox="0 0 19 17" version="1.1" xmlns="http://www.w3.org/2000/svg" xmlns:xlink="http://www.w3.org/1999/xlink">
    <!-- Generator: sketchtool 51.2 (57519) - http://www.bohemiancoding.com/sketch -->
    <title>FDAB7C75-D3DE-40FA-8B75-7D009C1B6423-669-0000C902C7CF58CC@1x</title>
    <desc>Created with sketchtool.</desc>
    <defs></defs>
    <g id="Page-1" stroke="none" stroke-width="1" fill="none" fill-rule="evenodd">
        <g id="Style-guide" transform="translate(-274.000000, -1027.000000)" stroke="#A1A5A8" stroke-width="2">
            <g id="icon/textLogs" transform="translate(275.000000, 1028.000000)">
                <path d="M2.93083253,14 C2.96949596,13.9728745 3.03693217,13.9273735 3.10167094,13.8801226 C3.95046805,13.26061 4.79926517,12.6419725 5.64626398,12.02071 C5.8701522,11.8562066 6.10572937,11.7442044 6.39795295,11.7905803 C6.6730927,11.8334562 6.94733329,11.872832 7.22337218,11.9034576 C8.98031028,12.0977115 10.6949883,11.920958 12.3557174,11.3259459 C13.712534,10.8403111 14.9102011,10.1166715 15.8363251,9.01327415 C17.3415013,7.2203629 17.3900554,4.98294265 15.9613069,3.13578029 C15.2473822,2.21088659 14.3230565,1.52837279 13.2539678,1.04273797 C10.4926797,-0.210287374 7.65856053,-0.313539462 4.78397963,0.622729472 C3.43885199,1.06111334 2.24747892,1.75937746 1.31236346,2.81639883 C0.0868227096,4.20155185 -0.335777549,5.77220861 0.281038999,7.53624428 C0.694647762,8.72101824 1.52905849,9.59253587 2.57926509,10.2811748 C2.83102694,10.4456781 2.93712658,10.6495572 2.93442913,10.9426882 C2.92543764,11.9612088 2.93083253,12.9797294 2.93083253,14 Z"></path>
            </g>
        </g>
    </g>
</svg>