<?xml version="1.0" encoding="UTF-8"?>
<svg width="25px" height="28px" viewBox="0 0 25 28" version="1.1" xmlns="http://www.w3.org/2000/svg" xmlns:xlink="http://www.w3.org/1999/xlink">
    <!-- Generator: sketchtool 51.2 (57519) - http://www.bohemiancoding.com/sketch -->
    <title>A4513E09-C174-470D-8D50-9B1989FB60E0@1x</title>
    <desc>Created with sketchtool.</desc>
    <defs></defs>
    <g id="Page-1" stroke="none" stroke-width="1" fill="none" fill-rule="evenodd">
        <g id="Style-guide" transform="translate(-631.000000, -1924.000000)" fill="#FF9E27">
            <g id="Group-7" transform="translate(620.000000, 1848.000000)">
                <g id="Icon/timer-tone/hover" transform="translate(11.000000, 76.000000)">
                    <path d="M22.4476263,8.90094801 L22.4476263,8.49294801 C22.4466263,8.06394801 22.4466263,7.63494801 22.4466263,7.20694801 C22.4466263,7.12594801 22.4396263,7.05594801 22.3346263,7.03294801 C21.8166263,6.92094801 21.3006263,6.80194801 20.7836263,6.68794801 C19.9536263,6.50494801 19.1216263,6.32594801 18.2916263,6.14094801 C17.3716263,5.93694801 16.4536263,5.72494801 15.5336263,5.52094801 C14.5276263,5.29794801 13.5206263,5.08094801 12.5156263,4.85794801 C11.5096263,4.63494801 10.5056263,4.40594801 9.49962629,4.17994801 C9.34462629,4.14494801 9.31562629,4.16594801 9.31462629,4.32194801 C9.31262629,4.63894801 9.31362629,4.95494801 9.31362629,5.27194801 C9.31362629,6.07094801 9.31462629,6.86894801 9.31262629,7.66794801 C9.31262629,7.78194801 9.33162629,7.85294801 9.47062629,7.87894801 C9.85662629,7.95194801 10.2396263,8.04594801 10.6236263,8.13194801 C11.1876263,8.25794801 11.7516263,8.38594801 12.3166263,8.51094801 C12.8856263,8.63694801 13.4556263,8.75894801 14.0246263,8.88594801 C14.5946263,9.01294801 15.1626263,9.14394801 15.7316263,9.26994801 C16.3856263,9.41494801 17.0416263,9.55594801 17.6966263,9.70094801 C18.4406263,9.86694801 19.1846263,10.036948 19.9296263,10.203948 C20.7026263,10.376948 21.4756263,10.546948 22.2486263,10.720948 C22.4206263,10.758948 22.4466263,10.743948 22.4466263,10.566948 C22.4476263,10.011948 22.4466263,9.45594801 22.4476263,8.90094801 M22.4256263,21.324948 C22.4346263,21.237948 22.4466263,21.176948 22.4466263,21.115948 C22.4476263,18.348948 22.4456263,15.581948 22.4496263,12.815948 C22.4496263,12.661948 22.3946263,12.608948 22.2466263,12.578948 C21.6756263,12.461948 21.1076263,12.326948 20.5376263,12.200948 C19.9686263,12.074948 19.3986263,11.949948 18.8286263,11.822948 C18.2646263,11.697948 17.6996263,11.571948 17.1346263,11.445948 L15.4126263,11.063948 C14.8426263,10.936948 14.2736263,10.808948 13.7036263,10.682948 C13.1346263,10.555948 12.5646263,10.430948 11.9956263,10.303948 C11.4306263,10.178948 10.8666263,10.053948 10.3016263,9.92794801 C10.0166263,9.86394801 9.73262629,9.79894801 9.44862629,9.73394801 C9.36262629,9.71394801 9.31662629,9.74094801 9.31562629,9.83294801 C9.31562629,9.90094801 9.31362629,9.96894801 9.31362629,10.036948 C9.31362629,13.442948 9.29862629,16.847948 9.32062629,20.251948 C9.32962629,21.716948 7.48162629,18.09 7.48162629,18 C7.48162629,13.1 7.48162629,7.48694801 7.48162629,2.58694801 C7.48162629,2.03194801 7.47862629,1.47594801 7.48362629,0.920948012 C7.48862629,0.486948012 7.76162629,0.130948012 8.15262629,0.0319480123 C8.75662629,-0.121051988 9.30062629,0.291948012 9.31162629,0.918948012 C9.31862629,1.30394801 9.31262629,1.68794801 9.31362629,2.07294801 C9.31362629,2.27694801 9.32362629,2.27894801 9.51662629,2.32094801 C10.0816263,2.44294801 10.6466263,2.57094801 11.2116263,2.69594801 C11.7856263,2.82394801 12.3596263,2.95194801 12.9336263,3.07894801 C13.4986263,3.20494801 14.0636263,3.32994801 14.6286263,3.45494801 C15.1216263,3.56494801 15.6156263,3.67294801 16.1086263,3.78294801 C16.6786263,3.90994801 17.2466263,4.03994801 17.8166263,4.16694801 C18.3006263,4.27394801 18.7846263,4.37794801 19.2686263,4.48494801 C19.7336263,4.58794801 20.1986263,4.69194801 20.6636263,4.79594801 C21.2136263,4.91994801 21.7636263,5.04394801 22.3136263,5.16894801 C22.4156263,5.19294801 22.4416263,5.14294801 22.4466263,5.05394801 C22.4596263,4.83094801 22.4536263,4.60394801 22.4976263,4.38794801 C22.5736263,4.01194801 22.9636263,3.73094801 23.3636263,3.73194801 C23.7616263,3.73194801 24.1446263,4.01594801 24.2306263,4.38894801 C24.2616263,4.52494801 24.2766263,4.66694801 24.2766263,4.80694801 C24.2786263,11.241948 24.2756263,17.676948 24.2816263,24.111948 C24.282293,24.931948 23.5217509,24.2279653 22,22 L22.4256263,21.324948 Z" id="Fill-1"></path>
                    <ellipse id="Oval-7" stroke="#FF9E27" stroke-width="2" cx="4.813055" cy="20.492123" rx="3.5" ry="2.5"></ellipse>
                    <ellipse id="Oval-7-Copy" stroke="#FF9E27" stroke-width="2" cx="19.7821471" cy="24.2204786" rx="3.5" ry="2.5"></ellipse>
                </g>
            </g>
        </g>
    </g>
</svg>