<?xml version="1.0" encoding="UTF-8"?>
<svg width="13px" height="16px" viewBox="0 0 13 16" version="1.1" xmlns="http://www.w3.org/2000/svg" xmlns:xlink="http://www.w3.org/1999/xlink">
    <!-- Generator: sketchtool 51.2 (57519) - http://www.bohemiancoding.com/sketch -->
    <title>49F46E8D-B5D7-4160-9E0F-91E763F10058-669-0000C902F2ACCF11@1x</title>
    <desc>Created with sketchtool.</desc>
    <defs></defs>
    <g id="Page-1" stroke="none" stroke-width="1" fill="none" fill-rule="evenodd">
        <g id="Style-guide" transform="translate(-544.000000, -6001.000000)" fill="#FF9E27" stroke="#FF9E27">
            <g id="profile" transform="translate(200.000000, 5142.000000)">
                <g id="icon\trash" transform="translate(345.000000, 860.000000)">
                    <path d="M5.75741004,2.8160564 C6.37529995,2.81474974 6.99254217,2.81540307 7.61043208,2.81474974 C7.78206816,2.81474974 7.78206816,2.81344308 7.78336353,2.63508414 C7.78336353,2.54623133 7.7846589,1.52404519 7.78401121,1.43453906 C7.7807728,1.00464828 7.48542919,0.680596867 7.06119661,0.67602356 C6.19200556,0.667530278 5.32281452,0.670143595 4.45362348,0.678636878 C4.12719107,0.681250196 3.87653762,0.871369067 3.787805,1.18888718 C3.74246717,1.35156622 3.75218242,2.46456515 3.74700095,2.63704412 C3.74052412,2.81540307 3.74570558,2.8160564 3.91734167,2.8160564 L5.75741004,2.8160564 Z M9.84493907,7.88131965 L9.8436437,7.88131965 C9.8436437,6.4916879 9.8436437,5.10205616 9.84429139,3.71177108 C9.84429139,3.49813235 9.84558675,3.49747902 9.63703273,3.49747902 L1.89980823,3.49747902 C1.68477738,3.49747902 1.6841297,3.49813235 1.6841297,3.7189577 C1.68477738,6.4805813 1.68542507,9.24285823 1.68607275,12.0044818 C1.68607275,12.7839039 2.20875316,13.3202874 2.97884858,13.321594 C4.83834729,13.323554 6.69719831,13.3229007 8.55669702,13.3202874 C8.68299526,13.319634 8.81577033,13.3091808 8.93559174,13.271941 C9.50879144,13.0942354 9.8436437,12.6316781 9.84493907,12.024735 C9.84558675,10.6435966 9.84493907,9.26245812 9.84493907,7.88131965 Z M10.5101103,12.032575 C10.5049289,12.8805966 10.1085467,13.4894997 9.34557572,13.8481776 C9.11888656,13.9540169 8.87535763,13.9945234 8.62470419,13.9945234 C7.37467538,13.99387 6.12399889,13.9951767 4.87397009,13.99583 C4.25154642,13.99583 3.62782738,13.9808034 3.00540371,13.9990967 C2.10577158,14.0258832 1.37648016,13.4535666 1.13942807,12.7329442 C1.06623985,12.5127722 1.02219739,12.2723469 1.0215497,12.0410683 C1.01183445,10.0804266 1.01507287,8.1197849 1.01442519,6.15914321 C1.01442519,5.33072146 1.01572055,4.50164639 1.01572055,3.67322464 C1.01572055,3.49813235 1.01442519,3.49813235 0.835016909,3.49747902 C0.680868279,3.49747902 0.525424282,3.50139899 0.371275652,3.49682569 C0.155597107,3.49094572 -0.00567603972,3.33349332 0.000153110152,3.14141446 C0.00662994334,2.95390891 0.16596004,2.8160564 0.380343219,2.8160564 C1.2197408,2.8160564 2.05913838,2.81344308 2.89853596,2.81866971 C3.03131104,2.81997637 3.07794424,1.85201658 3.07146741,1.71416406 C3.05462764,1.38749934 3.06499058,1.06148794 3.22950214,0.765529696 C3.4872801,0.301012454 3.87070863,0.014854153 4.40828578,0.00701419957 C5.3046795,-0.00670571897 6.20172089,0.00440088175 7.09811461,0.00178756393 C7.76199001,-0.000172424428 8.42327468,0.559730918 8.45889726,1.36985944 C8.46407873,1.48549875 8.46796483,1.60244473 8.45889726,1.71743071 C8.44918201,1.84352329 8.49063374,2.81866971 8.62146577,2.81801638 C9.46539714,2.81278975 10.3086808,2.81670972 11.1526122,2.81540307 C11.2989886,2.81474974 11.4123332,2.86832275 11.482283,2.995722 C11.6059905,3.22177399 11.4460127,3.48637242 11.1798149,3.49682569 C11.0120649,3.50401231 10.8436672,3.50531897 10.6759173,3.49551903 C10.5457329,3.48767907 10.5101103,3.53863877 10.510758,3.66473136 C10.5152918,4.48465982 10.5139964,5.30458829 10.5139964,6.12386342 C10.5139964,6.71708657 10.5139964,7.30900305 10.5139964,7.90222619 C10.5127011,9.27879135 10.5191779,10.6560098 10.5101103,12.032575 Z M6.86171848,5.57156281 C6.86236616,5.30892437 7.06055725,5.15408529 7.30214311,5.22137822 C7.44463343,5.26123132 7.53595678,5.3984305 7.53660446,5.5846294 C7.53854751,6.1236262 7.53854751,6.662623 7.53854751,7.2016198 C7.53789983,8.48867882 7.53789983,9.77639118 7.53725214,11.0634502 C7.53660446,11.1170232 7.53984288,11.1712496 7.53012763,11.2235159 C7.4964481,11.4025282 7.33582264,11.5299274 7.1706634,11.5129409 C6.9925505,11.4946476 6.86107079,11.3483018 6.86107079,11.1568763 C6.85912774,10.2219619 6.86042311,9.28639408 6.86042311,8.35082631 C6.86107079,7.42440514 6.86042311,6.49798397 6.86171848,5.57156281 Z M4.5962534,11.1519301 C4.5962534,11.3296357 4.50233932,11.4524617 4.34236155,11.4995014 C4.21152952,11.5387012 4.05090407,11.4857815 3.98678342,11.3616489 C3.94792242,11.2858627 3.92395814,11.1930899 3.92331046,11.108157 C3.91942436,9.82567133 3.92007204,8.54253228 3.92007204,7.25939323 C3.92007204,6.69818323 3.91942436,6.13762656 3.92201509,5.57576323 C3.92331046,5.31704476 4.11113861,5.16089903 4.34689533,5.21708536 C4.49651017,5.25367181 4.59690108,5.38825768 4.59754876,5.56596329 C4.59949181,5.93117445 4.59819645,6.29638562 4.59884413,6.66159678 L4.59884413,8.3589467 C4.59690108,9.28994117 4.59754876,10.2209356 4.5962534,11.1519301 Z" id="icon/trash/orange"></path>
                </g>
            </g>
        </g>
    </g>
</svg>